G75*
%MOIN*%
%OFA0B0*%
%FSLAX25Y25*%
%IPPOS*%
%LPD*%
%AMOC8*
5,1,8,0,0,1.08239X$1,22.5*
%
%ADD10C,0.00000*%
%ADD11R,0.03937X0.04331*%
%ADD12R,0.04331X0.03937*%
%ADD13R,0.02362X0.08661*%
%ADD14R,0.08661X0.02362*%
%ADD15C,0.05200*%
%ADD16C,0.07400*%
%ADD17C,0.01000*%
%ADD18C,0.02400*%
%ADD19C,0.01600*%
%ADD20C,0.02400*%
D10*
X0001500Y0013311D02*
X0001500Y0107799D01*
X0001503Y0108084D01*
X0001514Y0108370D01*
X0001531Y0108655D01*
X0001555Y0108939D01*
X0001586Y0109223D01*
X0001624Y0109506D01*
X0001669Y0109787D01*
X0001720Y0110068D01*
X0001778Y0110348D01*
X0001843Y0110626D01*
X0001915Y0110902D01*
X0001993Y0111176D01*
X0002078Y0111449D01*
X0002170Y0111719D01*
X0002268Y0111987D01*
X0002372Y0112253D01*
X0002483Y0112516D01*
X0002600Y0112776D01*
X0002723Y0113034D01*
X0002853Y0113288D01*
X0002989Y0113539D01*
X0003130Y0113787D01*
X0003278Y0114031D01*
X0003431Y0114272D01*
X0003591Y0114508D01*
X0003756Y0114741D01*
X0003926Y0114970D01*
X0004102Y0115195D01*
X0004284Y0115415D01*
X0004470Y0115631D01*
X0004662Y0115842D01*
X0004859Y0116049D01*
X0005061Y0116251D01*
X0005268Y0116448D01*
X0005479Y0116640D01*
X0005695Y0116826D01*
X0005915Y0117008D01*
X0006140Y0117184D01*
X0006369Y0117354D01*
X0006602Y0117519D01*
X0006838Y0117679D01*
X0007079Y0117832D01*
X0007323Y0117980D01*
X0007571Y0118121D01*
X0007822Y0118257D01*
X0008076Y0118387D01*
X0008334Y0118510D01*
X0008594Y0118627D01*
X0008857Y0118738D01*
X0009123Y0118842D01*
X0009391Y0118940D01*
X0009661Y0119032D01*
X0009934Y0119117D01*
X0010208Y0119195D01*
X0010484Y0119267D01*
X0010762Y0119332D01*
X0011042Y0119390D01*
X0011323Y0119441D01*
X0011604Y0119486D01*
X0011887Y0119524D01*
X0012171Y0119555D01*
X0012455Y0119579D01*
X0012740Y0119596D01*
X0013026Y0119607D01*
X0013311Y0119610D01*
X0107799Y0119610D01*
X0108084Y0119607D01*
X0108370Y0119596D01*
X0108655Y0119579D01*
X0108939Y0119555D01*
X0109223Y0119524D01*
X0109506Y0119486D01*
X0109787Y0119441D01*
X0110068Y0119390D01*
X0110348Y0119332D01*
X0110626Y0119267D01*
X0110902Y0119195D01*
X0111176Y0119117D01*
X0111449Y0119032D01*
X0111719Y0118940D01*
X0111987Y0118842D01*
X0112253Y0118738D01*
X0112516Y0118627D01*
X0112776Y0118510D01*
X0113034Y0118387D01*
X0113288Y0118257D01*
X0113539Y0118121D01*
X0113787Y0117980D01*
X0114031Y0117832D01*
X0114272Y0117679D01*
X0114508Y0117519D01*
X0114741Y0117354D01*
X0114970Y0117184D01*
X0115195Y0117008D01*
X0115415Y0116826D01*
X0115631Y0116640D01*
X0115842Y0116448D01*
X0116049Y0116251D01*
X0116251Y0116049D01*
X0116448Y0115842D01*
X0116640Y0115631D01*
X0116826Y0115415D01*
X0117008Y0115195D01*
X0117184Y0114970D01*
X0117354Y0114741D01*
X0117519Y0114508D01*
X0117679Y0114272D01*
X0117832Y0114031D01*
X0117980Y0113787D01*
X0118121Y0113539D01*
X0118257Y0113288D01*
X0118387Y0113034D01*
X0118510Y0112776D01*
X0118627Y0112516D01*
X0118738Y0112253D01*
X0118842Y0111987D01*
X0118940Y0111719D01*
X0119032Y0111449D01*
X0119117Y0111176D01*
X0119195Y0110902D01*
X0119267Y0110626D01*
X0119332Y0110348D01*
X0119390Y0110068D01*
X0119441Y0109787D01*
X0119486Y0109506D01*
X0119524Y0109223D01*
X0119555Y0108939D01*
X0119579Y0108655D01*
X0119596Y0108370D01*
X0119607Y0108084D01*
X0119610Y0107799D01*
X0119610Y0013311D01*
X0119607Y0013026D01*
X0119596Y0012740D01*
X0119579Y0012455D01*
X0119555Y0012171D01*
X0119524Y0011887D01*
X0119486Y0011604D01*
X0119441Y0011323D01*
X0119390Y0011042D01*
X0119332Y0010762D01*
X0119267Y0010484D01*
X0119195Y0010208D01*
X0119117Y0009934D01*
X0119032Y0009661D01*
X0118940Y0009391D01*
X0118842Y0009123D01*
X0118738Y0008857D01*
X0118627Y0008594D01*
X0118510Y0008334D01*
X0118387Y0008076D01*
X0118257Y0007822D01*
X0118121Y0007571D01*
X0117980Y0007323D01*
X0117832Y0007079D01*
X0117679Y0006838D01*
X0117519Y0006602D01*
X0117354Y0006369D01*
X0117184Y0006140D01*
X0117008Y0005915D01*
X0116826Y0005695D01*
X0116640Y0005479D01*
X0116448Y0005268D01*
X0116251Y0005061D01*
X0116049Y0004859D01*
X0115842Y0004662D01*
X0115631Y0004470D01*
X0115415Y0004284D01*
X0115195Y0004102D01*
X0114970Y0003926D01*
X0114741Y0003756D01*
X0114508Y0003591D01*
X0114272Y0003431D01*
X0114031Y0003278D01*
X0113787Y0003130D01*
X0113539Y0002989D01*
X0113288Y0002853D01*
X0113034Y0002723D01*
X0112776Y0002600D01*
X0112516Y0002483D01*
X0112253Y0002372D01*
X0111987Y0002268D01*
X0111719Y0002170D01*
X0111449Y0002078D01*
X0111176Y0001993D01*
X0110902Y0001915D01*
X0110626Y0001843D01*
X0110348Y0001778D01*
X0110068Y0001720D01*
X0109787Y0001669D01*
X0109506Y0001624D01*
X0109223Y0001586D01*
X0108939Y0001555D01*
X0108655Y0001531D01*
X0108370Y0001514D01*
X0108084Y0001503D01*
X0107799Y0001500D01*
X0013311Y0001500D01*
X0013026Y0001503D01*
X0012740Y0001514D01*
X0012455Y0001531D01*
X0012171Y0001555D01*
X0011887Y0001586D01*
X0011604Y0001624D01*
X0011323Y0001669D01*
X0011042Y0001720D01*
X0010762Y0001778D01*
X0010484Y0001843D01*
X0010208Y0001915D01*
X0009934Y0001993D01*
X0009661Y0002078D01*
X0009391Y0002170D01*
X0009123Y0002268D01*
X0008857Y0002372D01*
X0008594Y0002483D01*
X0008334Y0002600D01*
X0008076Y0002723D01*
X0007822Y0002853D01*
X0007571Y0002989D01*
X0007323Y0003130D01*
X0007079Y0003278D01*
X0006838Y0003431D01*
X0006602Y0003591D01*
X0006369Y0003756D01*
X0006140Y0003926D01*
X0005915Y0004102D01*
X0005695Y0004284D01*
X0005479Y0004470D01*
X0005268Y0004662D01*
X0005061Y0004859D01*
X0004859Y0005061D01*
X0004662Y0005268D01*
X0004470Y0005479D01*
X0004284Y0005695D01*
X0004102Y0005915D01*
X0003926Y0006140D01*
X0003756Y0006369D01*
X0003591Y0006602D01*
X0003431Y0006838D01*
X0003278Y0007079D01*
X0003130Y0007323D01*
X0002989Y0007571D01*
X0002853Y0007822D01*
X0002723Y0008076D01*
X0002600Y0008334D01*
X0002483Y0008594D01*
X0002372Y0008857D01*
X0002268Y0009123D01*
X0002170Y0009391D01*
X0002078Y0009661D01*
X0001993Y0009934D01*
X0001915Y0010208D01*
X0001843Y0010484D01*
X0001778Y0010762D01*
X0001720Y0011042D01*
X0001669Y0011323D01*
X0001624Y0011604D01*
X0001586Y0011887D01*
X0001555Y0012171D01*
X0001531Y0012455D01*
X0001514Y0012740D01*
X0001503Y0013026D01*
X0001500Y0013311D01*
D11*
X0027681Y0085161D03*
X0027681Y0091854D03*
X0083705Y0085673D03*
X0090398Y0085673D03*
X0088705Y0060161D03*
X0095398Y0060161D03*
D12*
X0095398Y0068232D03*
X0088705Y0068232D03*
X0090398Y0077563D03*
X0083705Y0077563D03*
D13*
X0084787Y0048646D03*
X0089787Y0048646D03*
X0094787Y0048646D03*
X0079787Y0048646D03*
X0074787Y0048646D03*
X0069787Y0048646D03*
X0064787Y0048646D03*
X0059787Y0048646D03*
X0059787Y0010949D03*
X0064787Y0010949D03*
X0069787Y0010949D03*
X0074787Y0010949D03*
X0079787Y0010949D03*
X0084787Y0010949D03*
X0089787Y0010949D03*
X0094787Y0010949D03*
D14*
X0047858Y0013528D03*
X0047858Y0018528D03*
X0047858Y0023528D03*
X0047858Y0028528D03*
X0047858Y0033528D03*
X0047858Y0038528D03*
X0047858Y0043528D03*
X0047858Y0048528D03*
X0010161Y0048528D03*
X0010161Y0043528D03*
X0010161Y0038528D03*
X0010161Y0033528D03*
X0010161Y0028528D03*
X0010161Y0023528D03*
X0010161Y0018528D03*
X0010161Y0013528D03*
D15*
X0039018Y0074098D02*
X0044218Y0074098D01*
X0044218Y0084098D02*
X0039018Y0084098D01*
X0039018Y0094098D02*
X0044218Y0094098D01*
X0044218Y0104098D02*
X0039018Y0104098D01*
X0069018Y0104098D02*
X0074218Y0104098D01*
X0074218Y0094098D02*
X0069018Y0094098D01*
X0069018Y0084098D02*
X0074218Y0084098D01*
X0074218Y0074098D02*
X0069018Y0074098D01*
D16*
X0109768Y0075280D03*
X0109768Y0085280D03*
X0109768Y0095280D03*
X0109768Y0105280D03*
X0109768Y0065280D03*
X0109768Y0055280D03*
X0109768Y0045280D03*
X0109768Y0035280D03*
X0109768Y0025280D03*
X0109768Y0015280D03*
X0013311Y0064295D03*
X0013311Y0074295D03*
X0013311Y0084295D03*
X0013311Y0094295D03*
X0013311Y0104295D03*
D17*
X0004124Y0008630D02*
X0006020Y0006020D01*
X0008630Y0004124D01*
X0011698Y0003127D01*
X0013311Y0003000D01*
X0107799Y0003000D01*
X0109412Y0003127D01*
X0112480Y0004124D01*
X0115090Y0006020D01*
X0116986Y0008630D01*
X0117983Y0011698D01*
X0118110Y0013311D01*
X0118110Y0107799D01*
X0117983Y0109412D01*
X0116986Y0112480D01*
X0115090Y0115090D01*
X0112480Y0116986D01*
X0109412Y0117983D01*
X0107799Y0118110D01*
X0013311Y0118110D01*
X0011698Y0117983D01*
X0008630Y0116986D01*
X0006020Y0115090D01*
X0004124Y0112480D01*
X0003127Y0109412D01*
X0003000Y0107799D01*
X0003000Y0013311D01*
X0003127Y0011698D01*
X0004124Y0008630D01*
X0004226Y0008490D02*
X0057506Y0008490D01*
X0057506Y0009488D02*
X0003845Y0009488D01*
X0003521Y0010487D02*
X0057506Y0010487D01*
X0057506Y0011485D02*
X0052883Y0011485D01*
X0052645Y0011246D02*
X0053289Y0011891D01*
X0053289Y0015164D01*
X0052645Y0015809D01*
X0043072Y0015809D01*
X0042428Y0015164D01*
X0042428Y0011891D01*
X0043072Y0011246D01*
X0052645Y0011246D01*
X0053289Y0012484D02*
X0057506Y0012484D01*
X0057506Y0013482D02*
X0053289Y0013482D01*
X0053289Y0014481D02*
X0057506Y0014481D01*
X0057506Y0015479D02*
X0052974Y0015479D01*
X0052645Y0016246D02*
X0053289Y0016891D01*
X0053289Y0020164D01*
X0052645Y0020809D01*
X0043072Y0020809D01*
X0042428Y0020164D01*
X0042428Y0016891D01*
X0043072Y0016246D01*
X0052645Y0016246D01*
X0052876Y0016478D02*
X0072887Y0016478D01*
X0072887Y0016116D02*
X0072506Y0015735D01*
X0072506Y0006162D01*
X0073151Y0005518D01*
X0076424Y0005518D01*
X0077068Y0006162D01*
X0077068Y0015735D01*
X0076687Y0016116D01*
X0076687Y0020260D01*
X0080696Y0024269D01*
X0080696Y0023579D01*
X0082043Y0022231D01*
X0082487Y0022231D01*
X0082487Y0009996D01*
X0082506Y0009977D01*
X0082506Y0006162D01*
X0083151Y0005518D01*
X0086424Y0005518D01*
X0087068Y0006162D01*
X0087068Y0009977D01*
X0087087Y0009996D01*
X0087087Y0022231D01*
X0106028Y0022231D01*
X0107049Y0021210D01*
X0108813Y0020480D01*
X0110722Y0020480D01*
X0112487Y0021210D01*
X0113837Y0022561D01*
X0114568Y0024325D01*
X0114568Y0026234D01*
X0113837Y0027998D01*
X0112487Y0029349D01*
X0110722Y0030080D01*
X0108813Y0030080D01*
X0107049Y0029349D01*
X0105698Y0027998D01*
X0105215Y0026831D01*
X0083259Y0026831D01*
X0089807Y0033380D01*
X0105359Y0033380D01*
X0105698Y0032561D01*
X0107049Y0031210D01*
X0108813Y0030480D01*
X0110722Y0030480D01*
X0112487Y0031210D01*
X0113837Y0032561D01*
X0114568Y0034325D01*
X0114568Y0036234D01*
X0113837Y0037998D01*
X0112487Y0039349D01*
X0110722Y0040080D01*
X0108813Y0040080D01*
X0107049Y0039349D01*
X0105698Y0037998D01*
X0105359Y0037180D01*
X0088233Y0037180D01*
X0087120Y0036067D01*
X0072887Y0021834D01*
X0072887Y0016116D01*
X0072506Y0015479D02*
X0072068Y0015479D01*
X0072068Y0015735D02*
X0071424Y0016380D01*
X0068151Y0016380D01*
X0067506Y0015735D01*
X0067506Y0006162D01*
X0068151Y0005518D01*
X0071424Y0005518D01*
X0072068Y0006162D01*
X0072068Y0015735D01*
X0072068Y0014481D02*
X0072506Y0014481D01*
X0072506Y0013482D02*
X0072068Y0013482D01*
X0072068Y0012484D02*
X0072506Y0012484D01*
X0072506Y0011485D02*
X0072068Y0011485D01*
X0072068Y0010487D02*
X0072506Y0010487D01*
X0072506Y0009488D02*
X0072068Y0009488D01*
X0072068Y0008490D02*
X0072506Y0008490D01*
X0072506Y0007491D02*
X0072068Y0007491D01*
X0072068Y0006493D02*
X0072506Y0006493D01*
X0077068Y0006493D02*
X0077506Y0006493D01*
X0077506Y0006162D02*
X0078151Y0005518D01*
X0081424Y0005518D01*
X0082068Y0006162D01*
X0082068Y0015735D01*
X0081424Y0016380D01*
X0078151Y0016380D01*
X0077506Y0015735D01*
X0077506Y0006162D01*
X0077506Y0007491D02*
X0077068Y0007491D01*
X0077068Y0008490D02*
X0077506Y0008490D01*
X0077506Y0009488D02*
X0077068Y0009488D01*
X0077068Y0010487D02*
X0077506Y0010487D01*
X0077506Y0011485D02*
X0077068Y0011485D01*
X0077068Y0012484D02*
X0077506Y0012484D01*
X0077506Y0013482D02*
X0077068Y0013482D01*
X0077068Y0014481D02*
X0077506Y0014481D01*
X0077506Y0015479D02*
X0077068Y0015479D01*
X0076687Y0016478D02*
X0082487Y0016478D01*
X0082487Y0017476D02*
X0076687Y0017476D01*
X0076687Y0018475D02*
X0082487Y0018475D01*
X0082487Y0019473D02*
X0076687Y0019473D01*
X0076899Y0020472D02*
X0082487Y0020472D01*
X0082487Y0021470D02*
X0077897Y0021470D01*
X0078896Y0022469D02*
X0081806Y0022469D01*
X0080808Y0023467D02*
X0079894Y0023467D01*
X0077516Y0026463D02*
X0063992Y0026463D01*
X0062994Y0025464D02*
X0076517Y0025464D01*
X0075519Y0024466D02*
X0061995Y0024466D01*
X0060997Y0023467D02*
X0074520Y0023467D01*
X0073522Y0022469D02*
X0059998Y0022469D01*
X0059157Y0021628D02*
X0075312Y0037783D01*
X0075878Y0037783D01*
X0077225Y0039130D01*
X0077225Y0041035D01*
X0076687Y0041573D01*
X0076687Y0043478D01*
X0077068Y0043859D01*
X0077068Y0053432D01*
X0076424Y0054076D01*
X0073151Y0054076D01*
X0072506Y0053432D01*
X0072506Y0043859D01*
X0072887Y0043478D01*
X0072887Y0041298D01*
X0072625Y0041035D01*
X0072625Y0040470D01*
X0057583Y0025428D01*
X0053026Y0025428D01*
X0052645Y0025809D01*
X0043072Y0025809D01*
X0042691Y0025428D01*
X0033409Y0025428D01*
X0023409Y0035428D01*
X0015329Y0035428D01*
X0014948Y0035809D01*
X0005375Y0035809D01*
X0004731Y0035164D01*
X0004731Y0031891D01*
X0005375Y0031246D01*
X0014948Y0031246D01*
X0015329Y0031628D01*
X0021835Y0031628D01*
X0030722Y0022741D01*
X0031835Y0021628D01*
X0042691Y0021628D01*
X0043072Y0021246D01*
X0052645Y0021246D01*
X0053026Y0021628D01*
X0059157Y0021628D01*
X0057620Y0025464D02*
X0052989Y0025464D01*
X0052645Y0026246D02*
X0053289Y0026891D01*
X0053289Y0030164D01*
X0052645Y0030809D01*
X0043072Y0030809D01*
X0042428Y0030164D01*
X0042428Y0026891D01*
X0043072Y0026246D01*
X0052645Y0026246D01*
X0052861Y0026463D02*
X0058618Y0026463D01*
X0059617Y0027461D02*
X0053289Y0027461D01*
X0053289Y0028460D02*
X0060615Y0028460D01*
X0061614Y0029458D02*
X0053289Y0029458D01*
X0052996Y0030457D02*
X0062612Y0030457D01*
X0063611Y0031455D02*
X0052853Y0031455D01*
X0052645Y0031246D02*
X0053289Y0031891D01*
X0053289Y0035164D01*
X0052645Y0035809D01*
X0043072Y0035809D01*
X0042691Y0035428D01*
X0042504Y0035428D01*
X0034699Y0043232D01*
X0034699Y0091067D01*
X0035809Y0092177D01*
X0035881Y0092003D01*
X0036922Y0090962D01*
X0038282Y0090398D01*
X0044954Y0090398D01*
X0046314Y0090962D01*
X0047355Y0092003D01*
X0047918Y0093362D01*
X0047918Y0094834D01*
X0047355Y0096194D01*
X0046314Y0097235D01*
X0044954Y0097798D01*
X0038282Y0097798D01*
X0036922Y0097235D01*
X0035881Y0096194D01*
X0035800Y0095998D01*
X0034256Y0095998D01*
X0033143Y0094885D01*
X0032012Y0093754D01*
X0030750Y0093754D01*
X0030750Y0094475D01*
X0030105Y0095120D01*
X0025257Y0095120D01*
X0024613Y0094475D01*
X0024613Y0089233D01*
X0025257Y0088589D01*
X0030105Y0088589D01*
X0030750Y0089233D01*
X0030750Y0089954D01*
X0030899Y0089954D01*
X0030899Y0041658D01*
X0032012Y0040545D01*
X0040930Y0031628D01*
X0042691Y0031628D01*
X0043072Y0031246D01*
X0052645Y0031246D01*
X0053289Y0032454D02*
X0064609Y0032454D01*
X0065608Y0033452D02*
X0053289Y0033452D01*
X0053289Y0034451D02*
X0066606Y0034451D01*
X0067605Y0035449D02*
X0053004Y0035449D01*
X0052645Y0036246D02*
X0053289Y0036891D01*
X0053289Y0040164D01*
X0052645Y0040809D01*
X0043072Y0040809D01*
X0042428Y0040164D01*
X0042428Y0036891D01*
X0043072Y0036246D01*
X0052645Y0036246D01*
X0052846Y0036448D02*
X0068603Y0036448D01*
X0069602Y0037446D02*
X0053289Y0037446D01*
X0053289Y0038445D02*
X0070600Y0038445D01*
X0071599Y0039443D02*
X0053289Y0039443D01*
X0053011Y0040442D02*
X0072597Y0040442D01*
X0072887Y0041440D02*
X0036491Y0041440D01*
X0037489Y0040442D02*
X0042705Y0040442D01*
X0042428Y0039443D02*
X0038488Y0039443D01*
X0039486Y0038445D02*
X0042428Y0038445D01*
X0042428Y0037446D02*
X0040485Y0037446D01*
X0041483Y0036448D02*
X0042870Y0036448D01*
X0042713Y0035449D02*
X0042482Y0035449D01*
X0040103Y0032454D02*
X0026383Y0032454D01*
X0027381Y0031455D02*
X0042863Y0031455D01*
X0042720Y0030457D02*
X0028380Y0030457D01*
X0029378Y0029458D02*
X0042428Y0029458D01*
X0042428Y0028460D02*
X0030377Y0028460D01*
X0031375Y0027461D02*
X0042428Y0027461D01*
X0042856Y0026463D02*
X0032374Y0026463D01*
X0033372Y0025464D02*
X0042728Y0025464D01*
X0042848Y0021470D02*
X0019211Y0021470D01*
X0018968Y0021228D02*
X0019972Y0022231D01*
X0021320Y0023579D01*
X0021320Y0025484D01*
X0019972Y0026831D01*
X0018067Y0026831D01*
X0017063Y0025828D01*
X0009209Y0025828D01*
X0009190Y0025809D01*
X0005375Y0025809D01*
X0004731Y0025164D01*
X0004731Y0021891D01*
X0005375Y0021246D01*
X0009190Y0021246D01*
X0009209Y0021228D01*
X0018968Y0021228D01*
X0020210Y0022469D02*
X0030994Y0022469D01*
X0029995Y0023467D02*
X0021208Y0023467D01*
X0021320Y0024466D02*
X0028997Y0024466D01*
X0027998Y0025464D02*
X0021320Y0025464D01*
X0020341Y0026463D02*
X0027000Y0026463D01*
X0026001Y0027461D02*
X0015592Y0027461D01*
X0015592Y0026891D02*
X0015592Y0030164D01*
X0014948Y0030809D01*
X0005375Y0030809D01*
X0004731Y0030164D01*
X0004731Y0026891D01*
X0005375Y0026246D01*
X0014948Y0026246D01*
X0015592Y0026891D01*
X0015164Y0026463D02*
X0017698Y0026463D01*
X0015592Y0028460D02*
X0025003Y0028460D01*
X0024004Y0029458D02*
X0015592Y0029458D01*
X0015300Y0030457D02*
X0023006Y0030457D01*
X0022007Y0031455D02*
X0015157Y0031455D01*
X0015307Y0035449D02*
X0037108Y0035449D01*
X0038106Y0034451D02*
X0024386Y0034451D01*
X0025384Y0033452D02*
X0039105Y0033452D01*
X0036109Y0036448D02*
X0015149Y0036448D01*
X0014948Y0036246D02*
X0015592Y0036891D01*
X0015592Y0040164D01*
X0014948Y0040809D01*
X0005375Y0040809D01*
X0004731Y0040164D01*
X0004731Y0036891D01*
X0005375Y0036246D01*
X0014948Y0036246D01*
X0015592Y0037446D02*
X0035111Y0037446D01*
X0034112Y0038445D02*
X0015592Y0038445D01*
X0015592Y0039443D02*
X0033114Y0039443D01*
X0032115Y0040442D02*
X0015314Y0040442D01*
X0014948Y0041246D02*
X0015592Y0041891D01*
X0015592Y0045164D01*
X0014948Y0045809D01*
X0005375Y0045809D01*
X0004731Y0045164D01*
X0004731Y0041891D01*
X0005375Y0041246D01*
X0014948Y0041246D01*
X0015142Y0041440D02*
X0031117Y0041440D01*
X0030899Y0042439D02*
X0015592Y0042439D01*
X0015592Y0043437D02*
X0030899Y0043437D01*
X0030899Y0044436D02*
X0015592Y0044436D01*
X0015322Y0045434D02*
X0030899Y0045434D01*
X0030899Y0046433D02*
X0015134Y0046433D01*
X0014948Y0046246D02*
X0015592Y0046891D01*
X0015592Y0050164D01*
X0014948Y0050809D01*
X0005375Y0050809D01*
X0004731Y0050164D01*
X0004731Y0046891D01*
X0005375Y0046246D01*
X0014948Y0046246D01*
X0015592Y0047432D02*
X0030899Y0047432D01*
X0030899Y0048430D02*
X0015592Y0048430D01*
X0015592Y0049429D02*
X0030899Y0049429D01*
X0030899Y0050427D02*
X0015329Y0050427D01*
X0014266Y0059495D02*
X0012356Y0059495D01*
X0010592Y0060226D01*
X0009242Y0061576D01*
X0008511Y0063340D01*
X0008511Y0065250D01*
X0009242Y0067014D01*
X0010592Y0068365D01*
X0012356Y0069095D01*
X0014266Y0069095D01*
X0016030Y0068365D01*
X0017380Y0067014D01*
X0018111Y0065250D01*
X0018111Y0063340D01*
X0017380Y0061576D01*
X0016030Y0060226D01*
X0014266Y0059495D01*
X0016216Y0060412D02*
X0030899Y0060412D01*
X0030899Y0059414D02*
X0003000Y0059414D01*
X0003000Y0060412D02*
X0010406Y0060412D01*
X0009407Y0061411D02*
X0003000Y0061411D01*
X0003000Y0062409D02*
X0008897Y0062409D01*
X0008511Y0063408D02*
X0003000Y0063408D01*
X0003000Y0064406D02*
X0008511Y0064406D01*
X0008575Y0065405D02*
X0003000Y0065405D01*
X0003000Y0066403D02*
X0008989Y0066403D01*
X0009629Y0067402D02*
X0003000Y0067402D01*
X0003000Y0068400D02*
X0010678Y0068400D01*
X0015944Y0068400D02*
X0030899Y0068400D01*
X0030899Y0067402D02*
X0016993Y0067402D01*
X0017633Y0066403D02*
X0030899Y0066403D01*
X0030899Y0065405D02*
X0018047Y0065405D01*
X0018111Y0064406D02*
X0030899Y0064406D01*
X0030899Y0063408D02*
X0018111Y0063408D01*
X0017725Y0062409D02*
X0030899Y0062409D01*
X0030899Y0061411D02*
X0017215Y0061411D01*
X0004993Y0050427D02*
X0003000Y0050427D01*
X0003000Y0049429D02*
X0004731Y0049429D01*
X0004731Y0048430D02*
X0003000Y0048430D01*
X0003000Y0047432D02*
X0004731Y0047432D01*
X0005189Y0046433D02*
X0003000Y0046433D01*
X0003000Y0045434D02*
X0005001Y0045434D01*
X0004731Y0044436D02*
X0003000Y0044436D01*
X0003000Y0043437D02*
X0004731Y0043437D01*
X0004731Y0042439D02*
X0003000Y0042439D01*
X0003000Y0041440D02*
X0005181Y0041440D01*
X0005008Y0040442D02*
X0003000Y0040442D01*
X0003000Y0039443D02*
X0004731Y0039443D01*
X0004731Y0038445D02*
X0003000Y0038445D01*
X0003000Y0037446D02*
X0004731Y0037446D01*
X0005174Y0036448D02*
X0003000Y0036448D01*
X0003000Y0035449D02*
X0005016Y0035449D01*
X0004731Y0034451D02*
X0003000Y0034451D01*
X0003000Y0033452D02*
X0004731Y0033452D01*
X0004731Y0032454D02*
X0003000Y0032454D01*
X0003000Y0031455D02*
X0005166Y0031455D01*
X0005023Y0030457D02*
X0003000Y0030457D01*
X0003000Y0029458D02*
X0004731Y0029458D01*
X0004731Y0028460D02*
X0003000Y0028460D01*
X0003000Y0027461D02*
X0004731Y0027461D01*
X0005159Y0026463D02*
X0003000Y0026463D01*
X0003000Y0025464D02*
X0005031Y0025464D01*
X0004731Y0024466D02*
X0003000Y0024466D01*
X0003000Y0023467D02*
X0004731Y0023467D01*
X0004731Y0022469D02*
X0003000Y0022469D01*
X0003000Y0021470D02*
X0005151Y0021470D01*
X0005375Y0020809D02*
X0004731Y0020164D01*
X0004731Y0016891D01*
X0005375Y0016246D01*
X0014948Y0016246D01*
X0015592Y0016891D01*
X0015592Y0020164D01*
X0014948Y0020809D01*
X0005375Y0020809D01*
X0005038Y0020472D02*
X0003000Y0020472D01*
X0003000Y0019473D02*
X0004731Y0019473D01*
X0004731Y0018475D02*
X0003000Y0018475D01*
X0003000Y0017476D02*
X0004731Y0017476D01*
X0005144Y0016478D02*
X0003000Y0016478D01*
X0003000Y0015479D02*
X0005046Y0015479D01*
X0004731Y0015164D02*
X0005375Y0015809D01*
X0014948Y0015809D01*
X0015592Y0015164D01*
X0015592Y0011891D01*
X0014948Y0011246D01*
X0005375Y0011246D01*
X0004731Y0011891D01*
X0004731Y0015164D01*
X0004731Y0014481D02*
X0003000Y0014481D01*
X0003000Y0013482D02*
X0004731Y0013482D01*
X0004731Y0012484D02*
X0003065Y0012484D01*
X0003196Y0011485D02*
X0005136Y0011485D01*
X0004951Y0007491D02*
X0057506Y0007491D01*
X0057506Y0006493D02*
X0005677Y0006493D01*
X0006744Y0005494D02*
X0114366Y0005494D01*
X0115434Y0006493D02*
X0097068Y0006493D01*
X0097068Y0006162D02*
X0097068Y0015735D01*
X0096424Y0016380D01*
X0093151Y0016380D01*
X0092506Y0015735D01*
X0092506Y0006162D01*
X0093151Y0005518D01*
X0096424Y0005518D01*
X0097068Y0006162D01*
X0097068Y0007491D02*
X0116159Y0007491D01*
X0116884Y0008490D02*
X0097068Y0008490D01*
X0097068Y0009488D02*
X0117265Y0009488D01*
X0117590Y0010487D02*
X0097068Y0010487D01*
X0097068Y0011485D02*
X0117914Y0011485D01*
X0118045Y0012484D02*
X0097068Y0012484D01*
X0097068Y0013482D02*
X0118110Y0013482D01*
X0118110Y0014481D02*
X0097068Y0014481D01*
X0097068Y0015479D02*
X0118110Y0015479D01*
X0118110Y0016478D02*
X0087087Y0016478D01*
X0087506Y0015735D02*
X0088151Y0016380D01*
X0091424Y0016380D01*
X0092068Y0015735D01*
X0092068Y0006162D01*
X0091424Y0005518D01*
X0088151Y0005518D01*
X0087506Y0006162D01*
X0087506Y0015735D01*
X0087506Y0015479D02*
X0087087Y0015479D01*
X0087087Y0014481D02*
X0087506Y0014481D01*
X0087506Y0013482D02*
X0087087Y0013482D01*
X0087087Y0012484D02*
X0087506Y0012484D01*
X0087506Y0011485D02*
X0087087Y0011485D01*
X0087087Y0010487D02*
X0087506Y0010487D01*
X0087506Y0009488D02*
X0087068Y0009488D01*
X0087068Y0008490D02*
X0087506Y0008490D01*
X0087506Y0007491D02*
X0087068Y0007491D01*
X0087068Y0006493D02*
X0087506Y0006493D01*
X0092068Y0006493D02*
X0092506Y0006493D01*
X0092506Y0007491D02*
X0092068Y0007491D01*
X0092068Y0008490D02*
X0092506Y0008490D01*
X0092506Y0009488D02*
X0092068Y0009488D01*
X0092068Y0010487D02*
X0092506Y0010487D01*
X0092506Y0011485D02*
X0092068Y0011485D01*
X0092068Y0012484D02*
X0092506Y0012484D01*
X0092506Y0013482D02*
X0092068Y0013482D01*
X0092068Y0014481D02*
X0092506Y0014481D01*
X0092506Y0015479D02*
X0092068Y0015479D01*
X0087087Y0017476D02*
X0118110Y0017476D01*
X0118110Y0018475D02*
X0087087Y0018475D01*
X0087087Y0019473D02*
X0118110Y0019473D01*
X0118110Y0020472D02*
X0087087Y0020472D01*
X0087087Y0021470D02*
X0106789Y0021470D01*
X0112747Y0021470D02*
X0118110Y0021470D01*
X0118110Y0022469D02*
X0113745Y0022469D01*
X0114213Y0023467D02*
X0118110Y0023467D01*
X0118110Y0024466D02*
X0114568Y0024466D01*
X0114568Y0025464D02*
X0118110Y0025464D01*
X0118110Y0026463D02*
X0114473Y0026463D01*
X0114059Y0027461D02*
X0118110Y0027461D01*
X0118110Y0028460D02*
X0113376Y0028460D01*
X0112222Y0029458D02*
X0118110Y0029458D01*
X0118110Y0030457D02*
X0086884Y0030457D01*
X0087882Y0031455D02*
X0106804Y0031455D01*
X0105805Y0032454D02*
X0088881Y0032454D01*
X0086503Y0035449D02*
X0072979Y0035449D01*
X0071980Y0034451D02*
X0085504Y0034451D01*
X0084506Y0033452D02*
X0070982Y0033452D01*
X0069983Y0032454D02*
X0083507Y0032454D01*
X0082509Y0031455D02*
X0068985Y0031455D01*
X0067986Y0030457D02*
X0081510Y0030457D01*
X0080511Y0029458D02*
X0066988Y0029458D01*
X0065989Y0028460D02*
X0079513Y0028460D01*
X0078514Y0027461D02*
X0064991Y0027461D01*
X0072887Y0021470D02*
X0052868Y0021470D01*
X0052982Y0020472D02*
X0072887Y0020472D01*
X0072887Y0019473D02*
X0053289Y0019473D01*
X0053289Y0018475D02*
X0072887Y0018475D01*
X0072887Y0017476D02*
X0053289Y0017476D01*
X0057506Y0015735D02*
X0058151Y0016380D01*
X0061424Y0016380D01*
X0062068Y0015735D01*
X0062068Y0006162D01*
X0061424Y0005518D01*
X0058151Y0005518D01*
X0057506Y0006162D01*
X0057506Y0015735D01*
X0062068Y0015479D02*
X0062506Y0015479D01*
X0062506Y0015735D02*
X0063151Y0016380D01*
X0066424Y0016380D01*
X0067068Y0015735D01*
X0067068Y0006162D01*
X0066424Y0005518D01*
X0063151Y0005518D01*
X0062506Y0006162D01*
X0062506Y0015735D01*
X0062506Y0014481D02*
X0062068Y0014481D01*
X0062068Y0013482D02*
X0062506Y0013482D01*
X0062506Y0012484D02*
X0062068Y0012484D01*
X0062068Y0011485D02*
X0062506Y0011485D01*
X0062506Y0010487D02*
X0062068Y0010487D01*
X0062068Y0009488D02*
X0062506Y0009488D01*
X0062506Y0008490D02*
X0062068Y0008490D01*
X0062068Y0007491D02*
X0062506Y0007491D01*
X0062506Y0006493D02*
X0062068Y0006493D01*
X0067068Y0006493D02*
X0067506Y0006493D01*
X0067506Y0007491D02*
X0067068Y0007491D01*
X0067068Y0008490D02*
X0067506Y0008490D01*
X0067506Y0009488D02*
X0067068Y0009488D01*
X0067068Y0010487D02*
X0067506Y0010487D01*
X0067506Y0011485D02*
X0067068Y0011485D01*
X0067068Y0012484D02*
X0067506Y0012484D01*
X0067506Y0013482D02*
X0067068Y0013482D01*
X0067068Y0014481D02*
X0067506Y0014481D01*
X0067506Y0015479D02*
X0067068Y0015479D01*
X0082068Y0015479D02*
X0082487Y0015479D01*
X0082487Y0014481D02*
X0082068Y0014481D01*
X0082068Y0013482D02*
X0082487Y0013482D01*
X0082487Y0012484D02*
X0082068Y0012484D01*
X0082068Y0011485D02*
X0082487Y0011485D01*
X0082487Y0010487D02*
X0082068Y0010487D01*
X0082068Y0009488D02*
X0082506Y0009488D01*
X0082506Y0008490D02*
X0082068Y0008490D01*
X0082068Y0007491D02*
X0082506Y0007491D01*
X0082506Y0006493D02*
X0082068Y0006493D01*
X0083888Y0027461D02*
X0105476Y0027461D01*
X0106160Y0028460D02*
X0084887Y0028460D01*
X0085885Y0029458D02*
X0107313Y0029458D01*
X0112732Y0031455D02*
X0118110Y0031455D01*
X0118110Y0032454D02*
X0113730Y0032454D01*
X0114206Y0033452D02*
X0118110Y0033452D01*
X0118110Y0034451D02*
X0114568Y0034451D01*
X0114568Y0035449D02*
X0118110Y0035449D01*
X0118110Y0036448D02*
X0114479Y0036448D01*
X0114066Y0037446D02*
X0118110Y0037446D01*
X0118110Y0038445D02*
X0113391Y0038445D01*
X0112258Y0039443D02*
X0118110Y0039443D01*
X0118110Y0040442D02*
X0077225Y0040442D01*
X0077225Y0039443D02*
X0107277Y0039443D01*
X0106145Y0038445D02*
X0076540Y0038445D01*
X0074976Y0037446D02*
X0105470Y0037446D01*
X0107049Y0041210D02*
X0108813Y0040480D01*
X0110722Y0040480D01*
X0112487Y0041210D01*
X0113837Y0042561D01*
X0114568Y0044325D01*
X0114568Y0046234D01*
X0113837Y0047998D01*
X0112487Y0049349D01*
X0110722Y0050080D01*
X0108813Y0050080D01*
X0107103Y0049371D01*
X0098466Y0058008D01*
X0098466Y0062782D01*
X0097822Y0063427D01*
X0092973Y0063427D01*
X0092329Y0062782D01*
X0092329Y0057540D01*
X0092973Y0056896D01*
X0094204Y0056896D01*
X0094611Y0056490D01*
X0104968Y0046133D01*
X0104968Y0044325D01*
X0105698Y0042561D01*
X0107049Y0041210D01*
X0106819Y0041440D02*
X0076820Y0041440D01*
X0076687Y0042439D02*
X0105820Y0042439D01*
X0105335Y0043437D02*
X0096647Y0043437D01*
X0096424Y0043215D02*
X0097068Y0043859D01*
X0097068Y0053432D01*
X0096424Y0054076D01*
X0093151Y0054076D01*
X0092506Y0053432D01*
X0092506Y0043859D01*
X0093151Y0043215D01*
X0096424Y0043215D01*
X0097068Y0044436D02*
X0104968Y0044436D01*
X0104968Y0045434D02*
X0097068Y0045434D01*
X0097068Y0046433D02*
X0104667Y0046433D01*
X0103669Y0047432D02*
X0097068Y0047432D01*
X0097068Y0048430D02*
X0102670Y0048430D01*
X0101672Y0049429D02*
X0097068Y0049429D01*
X0097068Y0050427D02*
X0100673Y0050427D01*
X0099675Y0051426D02*
X0097068Y0051426D01*
X0097068Y0052424D02*
X0098676Y0052424D01*
X0097678Y0053423D02*
X0097068Y0053423D01*
X0096679Y0054421D02*
X0086687Y0054421D01*
X0086687Y0053813D02*
X0086687Y0055457D01*
X0088126Y0056896D01*
X0091129Y0056896D01*
X0091773Y0057540D01*
X0091773Y0062782D01*
X0091129Y0063427D01*
X0090605Y0063427D01*
X0090605Y0065164D01*
X0091326Y0065164D01*
X0091970Y0065808D01*
X0091970Y0070656D01*
X0091326Y0071301D01*
X0086084Y0071301D01*
X0085439Y0070656D01*
X0085439Y0065808D01*
X0086084Y0065164D01*
X0086805Y0065164D01*
X0086805Y0063427D01*
X0086281Y0063427D01*
X0085636Y0062782D01*
X0085636Y0059780D01*
X0084000Y0058144D01*
X0082887Y0057031D01*
X0082887Y0053813D01*
X0082506Y0053432D01*
X0082506Y0043859D01*
X0083151Y0043215D01*
X0086424Y0043215D01*
X0087068Y0043859D01*
X0087068Y0053432D01*
X0086687Y0053813D01*
X0087068Y0053423D02*
X0087506Y0053423D01*
X0087506Y0053432D02*
X0088151Y0054076D01*
X0091424Y0054076D01*
X0092068Y0053432D01*
X0092068Y0043859D01*
X0091424Y0043215D01*
X0088151Y0043215D01*
X0087506Y0043859D01*
X0087506Y0053432D01*
X0087506Y0052424D02*
X0087068Y0052424D01*
X0087068Y0051426D02*
X0087506Y0051426D01*
X0087506Y0050427D02*
X0087068Y0050427D01*
X0087068Y0049429D02*
X0087506Y0049429D01*
X0087506Y0048430D02*
X0087068Y0048430D01*
X0087068Y0047432D02*
X0087506Y0047432D01*
X0087506Y0046433D02*
X0087068Y0046433D01*
X0087068Y0045434D02*
X0087506Y0045434D01*
X0087506Y0044436D02*
X0087068Y0044436D01*
X0086647Y0043437D02*
X0087928Y0043437D01*
X0091647Y0043437D02*
X0092928Y0043437D01*
X0092506Y0044436D02*
X0092068Y0044436D01*
X0092068Y0045434D02*
X0092506Y0045434D01*
X0092506Y0046433D02*
X0092068Y0046433D01*
X0092068Y0047432D02*
X0092506Y0047432D01*
X0092506Y0048430D02*
X0092068Y0048430D01*
X0092068Y0049429D02*
X0092506Y0049429D01*
X0092506Y0050427D02*
X0092068Y0050427D01*
X0092068Y0051426D02*
X0092506Y0051426D01*
X0092506Y0052424D02*
X0092068Y0052424D01*
X0092068Y0053423D02*
X0092506Y0053423D01*
X0094682Y0056418D02*
X0087648Y0056418D01*
X0086687Y0055420D02*
X0095681Y0055420D01*
X0099058Y0057417D02*
X0105457Y0057417D01*
X0105698Y0057998D02*
X0104968Y0056234D01*
X0104968Y0054325D01*
X0105698Y0052561D01*
X0107049Y0051210D01*
X0108813Y0050480D01*
X0110722Y0050480D01*
X0112487Y0051210D01*
X0113837Y0052561D01*
X0114568Y0054325D01*
X0114568Y0056234D01*
X0113837Y0057998D01*
X0112487Y0059349D01*
X0110722Y0060080D01*
X0108813Y0060080D01*
X0107049Y0059349D01*
X0105698Y0057998D01*
X0106115Y0058415D02*
X0098466Y0058415D01*
X0098466Y0059414D02*
X0107205Y0059414D01*
X0107049Y0061210D02*
X0108813Y0060480D01*
X0110722Y0060480D01*
X0112487Y0061210D01*
X0113837Y0062561D01*
X0114568Y0064325D01*
X0114568Y0066234D01*
X0113837Y0067998D01*
X0112487Y0069349D01*
X0110722Y0070080D01*
X0108813Y0070080D01*
X0107049Y0069349D01*
X0105698Y0067998D01*
X0104968Y0066234D01*
X0104968Y0064325D01*
X0105698Y0062561D01*
X0107049Y0061210D01*
X0106848Y0061411D02*
X0098466Y0061411D01*
X0098466Y0062409D02*
X0105850Y0062409D01*
X0105348Y0063408D02*
X0097841Y0063408D01*
X0098466Y0060412D02*
X0118110Y0060412D01*
X0118110Y0059414D02*
X0112330Y0059414D01*
X0113420Y0058415D02*
X0118110Y0058415D01*
X0118110Y0057417D02*
X0114078Y0057417D01*
X0114492Y0056418D02*
X0118110Y0056418D01*
X0118110Y0055420D02*
X0114568Y0055420D01*
X0114568Y0054421D02*
X0118110Y0054421D01*
X0118110Y0053423D02*
X0114194Y0053423D01*
X0113700Y0052424D02*
X0118110Y0052424D01*
X0118110Y0051426D02*
X0112702Y0051426D01*
X0112294Y0049429D02*
X0118110Y0049429D01*
X0118110Y0050427D02*
X0106047Y0050427D01*
X0106833Y0051426D02*
X0105049Y0051426D01*
X0105835Y0052424D02*
X0104050Y0052424D01*
X0103052Y0053423D02*
X0105341Y0053423D01*
X0104968Y0054421D02*
X0102053Y0054421D01*
X0101055Y0055420D02*
X0104968Y0055420D01*
X0105044Y0056418D02*
X0100056Y0056418D01*
X0092453Y0057417D02*
X0091649Y0057417D01*
X0091773Y0058415D02*
X0092329Y0058415D01*
X0092329Y0059414D02*
X0091773Y0059414D01*
X0091773Y0060412D02*
X0092329Y0060412D01*
X0092329Y0061411D02*
X0091773Y0061411D01*
X0091773Y0062409D02*
X0092329Y0062409D01*
X0092954Y0063408D02*
X0091148Y0063408D01*
X0090605Y0064406D02*
X0104968Y0064406D01*
X0104968Y0065405D02*
X0091567Y0065405D01*
X0091970Y0066403D02*
X0105038Y0066403D01*
X0105451Y0067402D02*
X0091970Y0067402D01*
X0091970Y0068400D02*
X0106100Y0068400D01*
X0107169Y0069399D02*
X0091970Y0069399D01*
X0091970Y0070397D02*
X0118110Y0070397D01*
X0118110Y0069399D02*
X0112366Y0069399D01*
X0113435Y0068400D02*
X0118110Y0068400D01*
X0118110Y0067402D02*
X0114084Y0067402D01*
X0114498Y0066403D02*
X0118110Y0066403D01*
X0118110Y0065405D02*
X0114568Y0065405D01*
X0114568Y0064406D02*
X0118110Y0064406D01*
X0118110Y0063408D02*
X0114188Y0063408D01*
X0113686Y0062409D02*
X0118110Y0062409D01*
X0118110Y0061411D02*
X0112687Y0061411D01*
X0110722Y0070480D02*
X0108813Y0070480D01*
X0107049Y0071210D01*
X0105698Y0072561D01*
X0104998Y0074252D01*
X0104757Y0074493D01*
X0095269Y0083981D01*
X0095269Y0088311D01*
X0091382Y0092198D01*
X0077436Y0092198D01*
X0077355Y0092003D01*
X0076314Y0090962D01*
X0074954Y0090398D01*
X0068282Y0090398D01*
X0066922Y0090962D01*
X0065881Y0092003D01*
X0065318Y0093362D01*
X0065318Y0094834D01*
X0065881Y0096194D01*
X0066922Y0097235D01*
X0066929Y0097238D01*
X0061342Y0097238D01*
X0047918Y0083814D01*
X0047918Y0083362D01*
X0047355Y0082003D01*
X0046314Y0080962D01*
X0044954Y0080398D01*
X0038282Y0080398D01*
X0036922Y0080962D01*
X0035881Y0082003D01*
X0035318Y0083362D01*
X0035318Y0084834D01*
X0035881Y0086194D01*
X0036922Y0087235D01*
X0038282Y0087798D01*
X0044954Y0087798D01*
X0046068Y0087337D01*
X0058655Y0099925D01*
X0059768Y0101038D01*
X0066846Y0101038D01*
X0065881Y0102003D01*
X0065318Y0103362D01*
X0065318Y0104834D01*
X0065881Y0106194D01*
X0066922Y0107235D01*
X0068282Y0107798D01*
X0074954Y0107798D01*
X0076314Y0107235D01*
X0077355Y0106194D01*
X0077918Y0104834D01*
X0077918Y0103362D01*
X0077355Y0102003D01*
X0076390Y0101038D01*
X0106696Y0101038D01*
X0107994Y0099740D01*
X0108813Y0100080D01*
X0110722Y0100080D01*
X0112487Y0099349D01*
X0113837Y0097998D01*
X0114568Y0096234D01*
X0114568Y0094325D01*
X0113837Y0092561D01*
X0112487Y0091210D01*
X0110722Y0090480D01*
X0108813Y0090480D01*
X0107049Y0091210D01*
X0105698Y0092561D01*
X0104968Y0094325D01*
X0104968Y0096234D01*
X0105307Y0097053D01*
X0105122Y0097238D01*
X0076308Y0097238D01*
X0076314Y0097235D01*
X0077355Y0096194D01*
X0077436Y0095998D01*
X0092956Y0095998D01*
X0097956Y0090998D01*
X0099069Y0089885D01*
X0099069Y0085555D01*
X0106162Y0078462D01*
X0107049Y0079349D01*
X0108813Y0080080D01*
X0110722Y0080080D01*
X0112487Y0079349D01*
X0113837Y0077998D01*
X0114568Y0076234D01*
X0114568Y0074325D01*
X0113837Y0072561D01*
X0112487Y0071210D01*
X0110722Y0070480D01*
X0112672Y0071396D02*
X0118110Y0071396D01*
X0118110Y0072394D02*
X0113671Y0072394D01*
X0114182Y0073393D02*
X0118110Y0073393D01*
X0118110Y0074391D02*
X0114568Y0074391D01*
X0114568Y0075390D02*
X0118110Y0075390D01*
X0118110Y0076388D02*
X0114504Y0076388D01*
X0114090Y0077387D02*
X0118110Y0077387D01*
X0118110Y0078385D02*
X0113450Y0078385D01*
X0112402Y0079384D02*
X0118110Y0079384D01*
X0118110Y0080382D02*
X0104242Y0080382D01*
X0105240Y0079384D02*
X0107134Y0079384D01*
X0107049Y0081210D02*
X0108813Y0080480D01*
X0110722Y0080480D01*
X0112487Y0081210D01*
X0113837Y0082561D01*
X0114568Y0084325D01*
X0114568Y0086234D01*
X0113837Y0087998D01*
X0112487Y0089349D01*
X0110722Y0090080D01*
X0108813Y0090080D01*
X0107049Y0089349D01*
X0105698Y0087998D01*
X0104968Y0086234D01*
X0104968Y0084325D01*
X0105698Y0082561D01*
X0107049Y0081210D01*
X0106878Y0081381D02*
X0103243Y0081381D01*
X0102245Y0082379D02*
X0105880Y0082379D01*
X0105360Y0083378D02*
X0101246Y0083378D01*
X0100248Y0084376D02*
X0104968Y0084376D01*
X0104968Y0085375D02*
X0099249Y0085375D01*
X0099069Y0086373D02*
X0105025Y0086373D01*
X0105439Y0087372D02*
X0099069Y0087372D01*
X0099069Y0088370D02*
X0106070Y0088370D01*
X0107098Y0089369D02*
X0099069Y0089369D01*
X0098587Y0090368D02*
X0118110Y0090368D01*
X0118110Y0091366D02*
X0112642Y0091366D01*
X0113641Y0092365D02*
X0118110Y0092365D01*
X0118110Y0093363D02*
X0114169Y0093363D01*
X0114568Y0094362D02*
X0118110Y0094362D01*
X0118110Y0095360D02*
X0114568Y0095360D01*
X0114516Y0096359D02*
X0118110Y0096359D01*
X0118110Y0097357D02*
X0114103Y0097357D01*
X0113480Y0098356D02*
X0118110Y0098356D01*
X0118110Y0099354D02*
X0112474Y0099354D01*
X0112487Y0101210D02*
X0113837Y0102561D01*
X0114568Y0104325D01*
X0114568Y0106234D01*
X0113837Y0107998D01*
X0112487Y0109349D01*
X0110722Y0110080D01*
X0108813Y0110080D01*
X0107049Y0109349D01*
X0105698Y0107998D01*
X0104968Y0106234D01*
X0104968Y0104325D01*
X0105698Y0102561D01*
X0107049Y0101210D01*
X0108813Y0100480D01*
X0110722Y0100480D01*
X0112487Y0101210D01*
X0112628Y0101351D02*
X0118110Y0101351D01*
X0118110Y0100353D02*
X0107382Y0100353D01*
X0106908Y0101351D02*
X0076703Y0101351D01*
X0077499Y0102350D02*
X0105909Y0102350D01*
X0105372Y0103348D02*
X0077912Y0103348D01*
X0077918Y0104347D02*
X0104968Y0104347D01*
X0104968Y0105345D02*
X0077707Y0105345D01*
X0077205Y0106344D02*
X0105013Y0106344D01*
X0105427Y0107342D02*
X0076055Y0107342D01*
X0067181Y0107342D02*
X0046055Y0107342D01*
X0046314Y0107235D02*
X0044954Y0107798D01*
X0038282Y0107798D01*
X0036922Y0107235D01*
X0035881Y0106194D01*
X0035318Y0104834D01*
X0035318Y0103362D01*
X0035881Y0102003D01*
X0036922Y0100962D01*
X0038282Y0100398D01*
X0044954Y0100398D01*
X0046314Y0100962D01*
X0047355Y0102003D01*
X0047918Y0103362D01*
X0047918Y0104834D01*
X0047355Y0106194D01*
X0046314Y0107235D01*
X0047205Y0106344D02*
X0066031Y0106344D01*
X0065530Y0105345D02*
X0047707Y0105345D01*
X0047918Y0104347D02*
X0065318Y0104347D01*
X0065324Y0103348D02*
X0047912Y0103348D01*
X0047499Y0102350D02*
X0065738Y0102350D01*
X0066533Y0101351D02*
X0046703Y0101351D01*
X0046020Y0097357D02*
X0056087Y0097357D01*
X0055089Y0096359D02*
X0047191Y0096359D01*
X0047700Y0095360D02*
X0054090Y0095360D01*
X0053092Y0094362D02*
X0047918Y0094362D01*
X0047918Y0093363D02*
X0052093Y0093363D01*
X0051095Y0092365D02*
X0047505Y0092365D01*
X0046718Y0091366D02*
X0050096Y0091366D01*
X0049098Y0090368D02*
X0034699Y0090368D01*
X0034699Y0089369D02*
X0048099Y0089369D01*
X0047101Y0088370D02*
X0034699Y0088370D01*
X0034699Y0087372D02*
X0037253Y0087372D01*
X0036061Y0086373D02*
X0034699Y0086373D01*
X0034699Y0085375D02*
X0035542Y0085375D01*
X0035318Y0084376D02*
X0034699Y0084376D01*
X0034699Y0083378D02*
X0035318Y0083378D01*
X0035725Y0082379D02*
X0034699Y0082379D01*
X0034699Y0081381D02*
X0036503Y0081381D01*
X0034699Y0080382D02*
X0080835Y0080382D01*
X0081084Y0080631D02*
X0080439Y0079987D01*
X0080439Y0075139D01*
X0081084Y0074494D01*
X0086326Y0074494D01*
X0086970Y0075139D01*
X0086970Y0079987D01*
X0086326Y0080631D01*
X0085605Y0080631D01*
X0085605Y0082408D01*
X0086129Y0082408D01*
X0086773Y0083052D01*
X0086773Y0088294D01*
X0086129Y0088939D01*
X0081281Y0088939D01*
X0080636Y0088294D01*
X0080636Y0085998D01*
X0077436Y0085998D01*
X0077355Y0086194D01*
X0076314Y0087235D01*
X0074954Y0087798D01*
X0068282Y0087798D01*
X0066922Y0087235D01*
X0065881Y0086194D01*
X0065318Y0084834D01*
X0065318Y0083362D01*
X0065881Y0082003D01*
X0066922Y0080962D01*
X0068282Y0080398D01*
X0074954Y0080398D01*
X0076314Y0080962D01*
X0077355Y0082003D01*
X0077436Y0082198D01*
X0081805Y0082198D01*
X0081805Y0080631D01*
X0081084Y0080631D01*
X0081805Y0081381D02*
X0076733Y0081381D01*
X0074954Y0077798D02*
X0076314Y0077235D01*
X0077355Y0076194D01*
X0077918Y0074834D01*
X0077918Y0073362D01*
X0077355Y0072003D01*
X0076314Y0070962D01*
X0074954Y0070398D01*
X0068282Y0070398D01*
X0066922Y0070962D01*
X0065881Y0072003D01*
X0065318Y0073362D01*
X0065318Y0074834D01*
X0065881Y0076194D01*
X0066922Y0077235D01*
X0068282Y0077798D01*
X0074954Y0077798D01*
X0075948Y0077387D02*
X0080439Y0077387D01*
X0080439Y0078385D02*
X0034699Y0078385D01*
X0034699Y0077387D02*
X0067289Y0077387D01*
X0066075Y0076388D02*
X0034699Y0076388D01*
X0034699Y0075390D02*
X0065548Y0075390D01*
X0065318Y0074391D02*
X0034699Y0074391D01*
X0034699Y0073393D02*
X0065318Y0073393D01*
X0065719Y0072394D02*
X0034699Y0072394D01*
X0034699Y0071396D02*
X0066488Y0071396D01*
X0066503Y0081381D02*
X0046733Y0081381D01*
X0047511Y0082379D02*
X0065725Y0082379D01*
X0065318Y0083378D02*
X0047918Y0083378D01*
X0048481Y0084376D02*
X0065318Y0084376D01*
X0065542Y0085375D02*
X0049479Y0085375D01*
X0050478Y0086373D02*
X0066061Y0086373D01*
X0067253Y0087372D02*
X0051476Y0087372D01*
X0052475Y0088370D02*
X0080712Y0088370D01*
X0080636Y0087372D02*
X0075984Y0087372D01*
X0077176Y0086373D02*
X0080636Y0086373D01*
X0076718Y0091366D02*
X0092215Y0091366D01*
X0093213Y0090368D02*
X0054472Y0090368D01*
X0055470Y0091366D02*
X0066518Y0091366D01*
X0065731Y0092365D02*
X0056469Y0092365D01*
X0057467Y0093363D02*
X0065318Y0093363D01*
X0065318Y0094362D02*
X0058466Y0094362D01*
X0059464Y0095360D02*
X0065536Y0095360D01*
X0066046Y0096359D02*
X0060463Y0096359D01*
X0057086Y0098356D02*
X0016039Y0098356D01*
X0016030Y0098365D02*
X0014266Y0099095D01*
X0012356Y0099095D01*
X0010592Y0098365D01*
X0009242Y0097014D01*
X0008511Y0095250D01*
X0008511Y0093340D01*
X0009242Y0091576D01*
X0010592Y0090226D01*
X0012356Y0089495D01*
X0014266Y0089495D01*
X0016030Y0090226D01*
X0017380Y0091576D01*
X0018111Y0093340D01*
X0018111Y0095250D01*
X0017380Y0097014D01*
X0016030Y0098365D01*
X0017037Y0097357D02*
X0037217Y0097357D01*
X0036046Y0096359D02*
X0017652Y0096359D01*
X0018065Y0095360D02*
X0033618Y0095360D01*
X0032619Y0094362D02*
X0030750Y0094362D01*
X0034998Y0091366D02*
X0036518Y0091366D01*
X0030899Y0089369D02*
X0030750Y0089369D01*
X0030899Y0088370D02*
X0030162Y0088370D01*
X0030105Y0088427D02*
X0030750Y0087782D01*
X0030750Y0082540D01*
X0030105Y0081896D01*
X0025257Y0081896D01*
X0024758Y0082395D01*
X0017719Y0082395D01*
X0017380Y0081576D01*
X0016030Y0080226D01*
X0014266Y0079495D01*
X0012356Y0079495D01*
X0010592Y0080226D01*
X0009242Y0081576D01*
X0008511Y0083340D01*
X0008511Y0085250D01*
X0009242Y0087014D01*
X0010592Y0088365D01*
X0012356Y0089095D01*
X0014266Y0089095D01*
X0016030Y0088365D01*
X0017380Y0087014D01*
X0017719Y0086195D01*
X0024613Y0086195D01*
X0024613Y0087782D01*
X0025257Y0088427D01*
X0030105Y0088427D01*
X0030750Y0087372D02*
X0030899Y0087372D01*
X0030899Y0086373D02*
X0030750Y0086373D01*
X0030750Y0085375D02*
X0030899Y0085375D01*
X0030899Y0084376D02*
X0030750Y0084376D01*
X0030750Y0083378D02*
X0030899Y0083378D01*
X0030899Y0082379D02*
X0030589Y0082379D01*
X0030899Y0081381D02*
X0017185Y0081381D01*
X0017713Y0082379D02*
X0024774Y0082379D01*
X0024613Y0086373D02*
X0017646Y0086373D01*
X0017023Y0087372D02*
X0024613Y0087372D01*
X0025201Y0088370D02*
X0016016Y0088370D01*
X0016171Y0090368D02*
X0024613Y0090368D01*
X0024613Y0091366D02*
X0017170Y0091366D01*
X0017707Y0092365D02*
X0024613Y0092365D01*
X0024613Y0093363D02*
X0018111Y0093363D01*
X0018111Y0094362D02*
X0024613Y0094362D01*
X0024613Y0089369D02*
X0003000Y0089369D01*
X0003000Y0088370D02*
X0010606Y0088370D01*
X0009600Y0087372D02*
X0003000Y0087372D01*
X0003000Y0086373D02*
X0008976Y0086373D01*
X0008563Y0085375D02*
X0003000Y0085375D01*
X0003000Y0084376D02*
X0008511Y0084376D01*
X0008511Y0083378D02*
X0003000Y0083378D01*
X0003000Y0082379D02*
X0008909Y0082379D01*
X0009437Y0081381D02*
X0003000Y0081381D01*
X0003000Y0080382D02*
X0010436Y0080382D01*
X0016186Y0080382D02*
X0030899Y0080382D01*
X0030899Y0079384D02*
X0003000Y0079384D01*
X0003000Y0078385D02*
X0030899Y0078385D01*
X0030899Y0077387D02*
X0003000Y0077387D01*
X0003000Y0076388D02*
X0030899Y0076388D01*
X0030899Y0075390D02*
X0003000Y0075390D01*
X0003000Y0074391D02*
X0030899Y0074391D01*
X0030899Y0073393D02*
X0003000Y0073393D01*
X0003000Y0072394D02*
X0030899Y0072394D01*
X0030899Y0071396D02*
X0003000Y0071396D01*
X0003000Y0070397D02*
X0030899Y0070397D01*
X0030899Y0069399D02*
X0003000Y0069399D01*
X0003000Y0058415D02*
X0030899Y0058415D01*
X0030899Y0057417D02*
X0003000Y0057417D01*
X0003000Y0056418D02*
X0030899Y0056418D01*
X0030899Y0055420D02*
X0003000Y0055420D01*
X0003000Y0054421D02*
X0030899Y0054421D01*
X0030899Y0053423D02*
X0003000Y0053423D01*
X0003000Y0052424D02*
X0030899Y0052424D01*
X0030899Y0051426D02*
X0003000Y0051426D01*
X0034699Y0051426D02*
X0057506Y0051426D01*
X0057506Y0052424D02*
X0034699Y0052424D01*
X0034699Y0053423D02*
X0057506Y0053423D01*
X0057506Y0053432D02*
X0058151Y0054076D01*
X0061424Y0054076D01*
X0062068Y0053432D01*
X0062068Y0043859D01*
X0061424Y0043215D01*
X0058151Y0043215D01*
X0057506Y0043859D01*
X0057506Y0053432D01*
X0057506Y0050427D02*
X0053026Y0050427D01*
X0053289Y0050164D02*
X0052645Y0050809D01*
X0043072Y0050809D01*
X0042428Y0050164D01*
X0042428Y0046891D01*
X0043072Y0046246D01*
X0052645Y0046246D01*
X0053289Y0046891D01*
X0053289Y0050164D01*
X0053289Y0049429D02*
X0057506Y0049429D01*
X0057506Y0048430D02*
X0053289Y0048430D01*
X0053289Y0047432D02*
X0057506Y0047432D01*
X0057506Y0046433D02*
X0052831Y0046433D01*
X0057506Y0045434D02*
X0034699Y0045434D01*
X0034699Y0044436D02*
X0057506Y0044436D01*
X0057928Y0043437D02*
X0034699Y0043437D01*
X0035492Y0042439D02*
X0072887Y0042439D01*
X0072887Y0043437D02*
X0071647Y0043437D01*
X0071424Y0043215D02*
X0072068Y0043859D01*
X0072068Y0053432D01*
X0071424Y0054076D01*
X0068151Y0054076D01*
X0067506Y0053432D01*
X0067506Y0043859D01*
X0068151Y0043215D01*
X0071424Y0043215D01*
X0072068Y0044436D02*
X0072506Y0044436D01*
X0072506Y0045434D02*
X0072068Y0045434D01*
X0072068Y0046433D02*
X0072506Y0046433D01*
X0072506Y0047432D02*
X0072068Y0047432D01*
X0072068Y0048430D02*
X0072506Y0048430D01*
X0072506Y0049429D02*
X0072068Y0049429D01*
X0072068Y0050427D02*
X0072506Y0050427D01*
X0072506Y0051426D02*
X0072068Y0051426D01*
X0072068Y0052424D02*
X0072506Y0052424D01*
X0072506Y0053423D02*
X0072068Y0053423D01*
X0067506Y0053423D02*
X0062068Y0053423D01*
X0062068Y0052424D02*
X0067506Y0052424D01*
X0067506Y0051426D02*
X0062068Y0051426D01*
X0062068Y0050427D02*
X0067506Y0050427D01*
X0067506Y0049429D02*
X0062068Y0049429D01*
X0062068Y0048430D02*
X0067506Y0048430D01*
X0067506Y0047432D02*
X0062068Y0047432D01*
X0062068Y0046433D02*
X0067506Y0046433D01*
X0067506Y0045434D02*
X0062068Y0045434D01*
X0062068Y0044436D02*
X0067506Y0044436D01*
X0067928Y0043437D02*
X0061647Y0043437D01*
X0073977Y0036448D02*
X0087501Y0036448D01*
X0082928Y0043437D02*
X0081647Y0043437D01*
X0081424Y0043215D02*
X0082068Y0043859D01*
X0082068Y0053432D01*
X0081424Y0054076D01*
X0078151Y0054076D01*
X0077506Y0053432D01*
X0077506Y0043859D01*
X0078151Y0043215D01*
X0081424Y0043215D01*
X0082068Y0044436D02*
X0082506Y0044436D01*
X0082506Y0045434D02*
X0082068Y0045434D01*
X0082068Y0046433D02*
X0082506Y0046433D01*
X0082506Y0047432D02*
X0082068Y0047432D01*
X0082068Y0048430D02*
X0082506Y0048430D01*
X0082506Y0049429D02*
X0082068Y0049429D01*
X0082068Y0050427D02*
X0082506Y0050427D01*
X0082506Y0051426D02*
X0082068Y0051426D01*
X0082068Y0052424D02*
X0082506Y0052424D01*
X0082506Y0053423D02*
X0082068Y0053423D01*
X0082887Y0054421D02*
X0034699Y0054421D01*
X0034699Y0055420D02*
X0082887Y0055420D01*
X0082887Y0056418D02*
X0034699Y0056418D01*
X0034699Y0057417D02*
X0083273Y0057417D01*
X0084271Y0058415D02*
X0034699Y0058415D01*
X0034699Y0059414D02*
X0085270Y0059414D01*
X0085636Y0060412D02*
X0034699Y0060412D01*
X0034699Y0061411D02*
X0085636Y0061411D01*
X0085636Y0062409D02*
X0034699Y0062409D01*
X0034699Y0063408D02*
X0086262Y0063408D01*
X0086805Y0064406D02*
X0034699Y0064406D01*
X0034699Y0065405D02*
X0085843Y0065405D01*
X0085439Y0066403D02*
X0034699Y0066403D01*
X0034699Y0067402D02*
X0085439Y0067402D01*
X0085439Y0068400D02*
X0034699Y0068400D01*
X0034699Y0069399D02*
X0085439Y0069399D01*
X0085439Y0070397D02*
X0034699Y0070397D01*
X0034699Y0079384D02*
X0080439Y0079384D01*
X0080439Y0076388D02*
X0077161Y0076388D01*
X0077688Y0075390D02*
X0080439Y0075390D01*
X0077918Y0074391D02*
X0104859Y0074391D01*
X0105354Y0073393D02*
X0077918Y0073393D01*
X0077517Y0072394D02*
X0105865Y0072394D01*
X0106863Y0071396D02*
X0076748Y0071396D01*
X0086970Y0075390D02*
X0103860Y0075390D01*
X0102862Y0076388D02*
X0086970Y0076388D01*
X0086970Y0077387D02*
X0101863Y0077387D01*
X0100865Y0078385D02*
X0086970Y0078385D01*
X0086970Y0079384D02*
X0099866Y0079384D01*
X0098868Y0080382D02*
X0086575Y0080382D01*
X0085605Y0081381D02*
X0097869Y0081381D01*
X0096871Y0082379D02*
X0085605Y0082379D01*
X0086773Y0083378D02*
X0095872Y0083378D01*
X0095269Y0084376D02*
X0086773Y0084376D01*
X0086773Y0085375D02*
X0095269Y0085375D01*
X0095269Y0086373D02*
X0086773Y0086373D01*
X0086773Y0087372D02*
X0095269Y0087372D01*
X0095210Y0088370D02*
X0086697Y0088370D01*
X0094212Y0089369D02*
X0053473Y0089369D01*
X0046102Y0087372D02*
X0045984Y0087372D01*
X0058084Y0099354D02*
X0003000Y0099354D01*
X0003000Y0098356D02*
X0010583Y0098356D01*
X0009585Y0097357D02*
X0003000Y0097357D01*
X0003000Y0096359D02*
X0008970Y0096359D01*
X0008557Y0095360D02*
X0003000Y0095360D01*
X0003000Y0094362D02*
X0008511Y0094362D01*
X0008511Y0093363D02*
X0003000Y0093363D01*
X0003000Y0092365D02*
X0008915Y0092365D01*
X0009452Y0091366D02*
X0003000Y0091366D01*
X0003000Y0090368D02*
X0010451Y0090368D01*
X0012356Y0099495D02*
X0010592Y0100226D01*
X0009242Y0101576D01*
X0008511Y0103340D01*
X0008511Y0105250D01*
X0009242Y0107014D01*
X0010592Y0108365D01*
X0012356Y0109095D01*
X0014266Y0109095D01*
X0016030Y0108365D01*
X0017380Y0107014D01*
X0018111Y0105250D01*
X0018111Y0103340D01*
X0017380Y0101576D01*
X0016030Y0100226D01*
X0014266Y0099495D01*
X0012356Y0099495D01*
X0010465Y0100353D02*
X0003000Y0100353D01*
X0003000Y0101351D02*
X0009467Y0101351D01*
X0008921Y0102350D02*
X0003000Y0102350D01*
X0003000Y0103348D02*
X0008511Y0103348D01*
X0008511Y0104347D02*
X0003000Y0104347D01*
X0003000Y0105345D02*
X0008550Y0105345D01*
X0008964Y0106344D02*
X0003000Y0106344D01*
X0003000Y0107342D02*
X0009570Y0107342D01*
X0010568Y0108341D02*
X0003043Y0108341D01*
X0003121Y0109339D02*
X0107039Y0109339D01*
X0106041Y0108341D02*
X0016054Y0108341D01*
X0017052Y0107342D02*
X0037181Y0107342D01*
X0036031Y0106344D02*
X0017658Y0106344D01*
X0018072Y0105345D02*
X0035530Y0105345D01*
X0035318Y0104347D02*
X0018111Y0104347D01*
X0018111Y0103348D02*
X0035324Y0103348D01*
X0035738Y0102350D02*
X0017701Y0102350D01*
X0017155Y0101351D02*
X0036533Y0101351D01*
X0016157Y0100353D02*
X0059083Y0100353D01*
X0077191Y0096359D02*
X0105019Y0096359D01*
X0104968Y0095360D02*
X0093595Y0095360D01*
X0094593Y0094362D02*
X0104968Y0094362D01*
X0105366Y0093363D02*
X0095592Y0093363D01*
X0096590Y0092365D02*
X0105894Y0092365D01*
X0106893Y0091366D02*
X0097589Y0091366D01*
X0112438Y0089369D02*
X0118110Y0089369D01*
X0118110Y0088370D02*
X0113465Y0088370D01*
X0114096Y0087372D02*
X0118110Y0087372D01*
X0118110Y0086373D02*
X0114510Y0086373D01*
X0114568Y0085375D02*
X0118110Y0085375D01*
X0118110Y0084376D02*
X0114568Y0084376D01*
X0114176Y0083378D02*
X0118110Y0083378D01*
X0118110Y0082379D02*
X0113656Y0082379D01*
X0112657Y0081381D02*
X0118110Y0081381D01*
X0118110Y0102350D02*
X0113626Y0102350D01*
X0114163Y0103348D02*
X0118110Y0103348D01*
X0118110Y0104347D02*
X0114568Y0104347D01*
X0114568Y0105345D02*
X0118110Y0105345D01*
X0118110Y0106344D02*
X0114522Y0106344D01*
X0114109Y0107342D02*
X0118110Y0107342D01*
X0118068Y0108341D02*
X0113495Y0108341D01*
X0112496Y0109339D02*
X0117989Y0109339D01*
X0117683Y0110338D02*
X0003428Y0110338D01*
X0003752Y0111336D02*
X0117358Y0111336D01*
X0117034Y0112335D02*
X0004077Y0112335D01*
X0004744Y0113333D02*
X0116367Y0113333D01*
X0115641Y0114332D02*
X0005469Y0114332D01*
X0006350Y0115330D02*
X0114760Y0115330D01*
X0113385Y0116329D02*
X0007725Y0116329D01*
X0009679Y0117327D02*
X0111431Y0117327D01*
X0077506Y0053423D02*
X0077068Y0053423D01*
X0077068Y0052424D02*
X0077506Y0052424D01*
X0077506Y0051426D02*
X0077068Y0051426D01*
X0077068Y0050427D02*
X0077506Y0050427D01*
X0077506Y0049429D02*
X0077068Y0049429D01*
X0077068Y0048430D02*
X0077506Y0048430D01*
X0077506Y0047432D02*
X0077068Y0047432D01*
X0077068Y0046433D02*
X0077506Y0046433D01*
X0077506Y0045434D02*
X0077068Y0045434D01*
X0077068Y0044436D02*
X0077506Y0044436D01*
X0077928Y0043437D02*
X0076687Y0043437D01*
X0107046Y0049429D02*
X0107241Y0049429D01*
X0113405Y0048430D02*
X0118110Y0048430D01*
X0118110Y0047432D02*
X0114072Y0047432D01*
X0114485Y0046433D02*
X0118110Y0046433D01*
X0118110Y0045434D02*
X0114568Y0045434D01*
X0114568Y0044436D02*
X0118110Y0044436D01*
X0118110Y0043437D02*
X0114200Y0043437D01*
X0113715Y0042439D02*
X0118110Y0042439D01*
X0118110Y0041440D02*
X0112717Y0041440D01*
X0112992Y0004496D02*
X0008118Y0004496D01*
X0010559Y0003497D02*
X0110551Y0003497D01*
X0042833Y0011485D02*
X0015186Y0011485D01*
X0015592Y0012484D02*
X0042428Y0012484D01*
X0042428Y0013482D02*
X0015592Y0013482D01*
X0015592Y0014481D02*
X0042428Y0014481D01*
X0042742Y0015479D02*
X0015277Y0015479D01*
X0015179Y0016478D02*
X0042841Y0016478D01*
X0042428Y0017476D02*
X0015592Y0017476D01*
X0015592Y0018475D02*
X0042428Y0018475D01*
X0042428Y0019473D02*
X0015592Y0019473D01*
X0015285Y0020472D02*
X0042735Y0020472D01*
X0042885Y0046433D02*
X0034699Y0046433D01*
X0034699Y0047432D02*
X0042428Y0047432D01*
X0042428Y0048430D02*
X0034699Y0048430D01*
X0034699Y0049429D02*
X0042428Y0049429D01*
X0042690Y0050427D02*
X0034699Y0050427D01*
D18*
X0044807Y0056618D03*
X0060555Y0062524D03*
X0060555Y0074335D03*
X0060555Y0086146D03*
X0054650Y0101894D03*
X0054650Y0114886D03*
X0070398Y0114886D03*
X0086146Y0114886D03*
X0086146Y0104650D03*
X0089295Y0090870D03*
X0081028Y0090870D03*
X0095988Y0080240D03*
X0099925Y0094020D03*
X0101894Y0114886D03*
X0101106Y0060555D03*
X0092051Y0040870D03*
X0099925Y0029846D03*
X0097957Y0019217D03*
X0101894Y0007406D03*
X0082996Y0024531D03*
X0072366Y0029059D03*
X0080240Y0036933D03*
X0074925Y0040083D03*
X0062524Y0038902D03*
X0058587Y0031028D03*
X0062524Y0019217D03*
X0050713Y0007406D03*
X0034965Y0011343D03*
X0019217Y0011343D03*
X0019020Y0024531D03*
X0023154Y0038902D03*
X0034965Y0031028D03*
X0023154Y0054650D03*
X0025122Y0074335D03*
X0027091Y0109768D03*
X0038902Y0114886D03*
D19*
X0041618Y0094098D02*
X0035043Y0094098D01*
X0032799Y0091854D01*
X0027681Y0091854D01*
X0032799Y0091854D02*
X0032799Y0042445D01*
X0041717Y0033528D01*
X0047858Y0033528D01*
X0047858Y0023528D02*
X0058370Y0023528D01*
X0074925Y0040083D01*
X0074787Y0040220D01*
X0074787Y0048646D01*
X0084787Y0048646D02*
X0084787Y0056244D01*
X0088705Y0060161D01*
X0088705Y0068232D01*
X0095398Y0060161D02*
X0095398Y0058390D01*
X0108508Y0045280D01*
X0109768Y0045280D01*
X0109768Y0035280D02*
X0089020Y0035280D01*
X0074787Y0021047D01*
X0074787Y0010949D01*
X0047858Y0023528D02*
X0032622Y0023528D01*
X0022622Y0033528D01*
X0010161Y0033528D01*
X0013311Y0084295D02*
X0026815Y0084295D01*
X0027681Y0085161D01*
X0041618Y0084098D02*
X0045516Y0084098D01*
X0060555Y0099138D01*
X0105909Y0099138D01*
X0109768Y0095280D01*
X0097169Y0089098D02*
X0097169Y0084768D01*
X0106657Y0075280D01*
X0109768Y0075280D01*
X0097169Y0089098D02*
X0092169Y0094098D01*
X0071618Y0094098D01*
X0071618Y0084098D02*
X0083193Y0084098D01*
X0083705Y0083587D01*
X0083705Y0077563D01*
X0083705Y0083587D02*
X0083705Y0085673D01*
D20*
X0082996Y0024531D02*
X0084768Y0024531D01*
X0109020Y0024531D01*
X0109768Y0025280D01*
X0084787Y0024512D02*
X0084787Y0010949D01*
X0084787Y0024512D02*
X0084768Y0024531D01*
X0019020Y0024531D02*
X0018016Y0023528D01*
X0010161Y0023528D01*
M02*
