G75*
%MOIN*%
%OFA0B0*%
%FSLAX25Y25*%
%IPPOS*%
%LPD*%
%AMOC8*
5,1,8,0,0,1.08239X$1,22.5*
%
%ADD10C,0.00000*%
%ADD11C,0.00400*%
%ADD12C,0.00300*%
%ADD13C,0.00800*%
%ADD14C,0.00600*%
D10*
X0001500Y0013311D02*
X0001500Y0107799D01*
X0001503Y0108084D01*
X0001514Y0108370D01*
X0001531Y0108655D01*
X0001555Y0108939D01*
X0001586Y0109223D01*
X0001624Y0109506D01*
X0001669Y0109787D01*
X0001720Y0110068D01*
X0001778Y0110348D01*
X0001843Y0110626D01*
X0001915Y0110902D01*
X0001993Y0111176D01*
X0002078Y0111449D01*
X0002170Y0111719D01*
X0002268Y0111987D01*
X0002372Y0112253D01*
X0002483Y0112516D01*
X0002600Y0112776D01*
X0002723Y0113034D01*
X0002853Y0113288D01*
X0002989Y0113539D01*
X0003130Y0113787D01*
X0003278Y0114031D01*
X0003431Y0114272D01*
X0003591Y0114508D01*
X0003756Y0114741D01*
X0003926Y0114970D01*
X0004102Y0115195D01*
X0004284Y0115415D01*
X0004470Y0115631D01*
X0004662Y0115842D01*
X0004859Y0116049D01*
X0005061Y0116251D01*
X0005268Y0116448D01*
X0005479Y0116640D01*
X0005695Y0116826D01*
X0005915Y0117008D01*
X0006140Y0117184D01*
X0006369Y0117354D01*
X0006602Y0117519D01*
X0006838Y0117679D01*
X0007079Y0117832D01*
X0007323Y0117980D01*
X0007571Y0118121D01*
X0007822Y0118257D01*
X0008076Y0118387D01*
X0008334Y0118510D01*
X0008594Y0118627D01*
X0008857Y0118738D01*
X0009123Y0118842D01*
X0009391Y0118940D01*
X0009661Y0119032D01*
X0009934Y0119117D01*
X0010208Y0119195D01*
X0010484Y0119267D01*
X0010762Y0119332D01*
X0011042Y0119390D01*
X0011323Y0119441D01*
X0011604Y0119486D01*
X0011887Y0119524D01*
X0012171Y0119555D01*
X0012455Y0119579D01*
X0012740Y0119596D01*
X0013026Y0119607D01*
X0013311Y0119610D01*
X0107799Y0119610D01*
X0108084Y0119607D01*
X0108370Y0119596D01*
X0108655Y0119579D01*
X0108939Y0119555D01*
X0109223Y0119524D01*
X0109506Y0119486D01*
X0109787Y0119441D01*
X0110068Y0119390D01*
X0110348Y0119332D01*
X0110626Y0119267D01*
X0110902Y0119195D01*
X0111176Y0119117D01*
X0111449Y0119032D01*
X0111719Y0118940D01*
X0111987Y0118842D01*
X0112253Y0118738D01*
X0112516Y0118627D01*
X0112776Y0118510D01*
X0113034Y0118387D01*
X0113288Y0118257D01*
X0113539Y0118121D01*
X0113787Y0117980D01*
X0114031Y0117832D01*
X0114272Y0117679D01*
X0114508Y0117519D01*
X0114741Y0117354D01*
X0114970Y0117184D01*
X0115195Y0117008D01*
X0115415Y0116826D01*
X0115631Y0116640D01*
X0115842Y0116448D01*
X0116049Y0116251D01*
X0116251Y0116049D01*
X0116448Y0115842D01*
X0116640Y0115631D01*
X0116826Y0115415D01*
X0117008Y0115195D01*
X0117184Y0114970D01*
X0117354Y0114741D01*
X0117519Y0114508D01*
X0117679Y0114272D01*
X0117832Y0114031D01*
X0117980Y0113787D01*
X0118121Y0113539D01*
X0118257Y0113288D01*
X0118387Y0113034D01*
X0118510Y0112776D01*
X0118627Y0112516D01*
X0118738Y0112253D01*
X0118842Y0111987D01*
X0118940Y0111719D01*
X0119032Y0111449D01*
X0119117Y0111176D01*
X0119195Y0110902D01*
X0119267Y0110626D01*
X0119332Y0110348D01*
X0119390Y0110068D01*
X0119441Y0109787D01*
X0119486Y0109506D01*
X0119524Y0109223D01*
X0119555Y0108939D01*
X0119579Y0108655D01*
X0119596Y0108370D01*
X0119607Y0108084D01*
X0119610Y0107799D01*
X0119610Y0013311D01*
X0119607Y0013026D01*
X0119596Y0012740D01*
X0119579Y0012455D01*
X0119555Y0012171D01*
X0119524Y0011887D01*
X0119486Y0011604D01*
X0119441Y0011323D01*
X0119390Y0011042D01*
X0119332Y0010762D01*
X0119267Y0010484D01*
X0119195Y0010208D01*
X0119117Y0009934D01*
X0119032Y0009661D01*
X0118940Y0009391D01*
X0118842Y0009123D01*
X0118738Y0008857D01*
X0118627Y0008594D01*
X0118510Y0008334D01*
X0118387Y0008076D01*
X0118257Y0007822D01*
X0118121Y0007571D01*
X0117980Y0007323D01*
X0117832Y0007079D01*
X0117679Y0006838D01*
X0117519Y0006602D01*
X0117354Y0006369D01*
X0117184Y0006140D01*
X0117008Y0005915D01*
X0116826Y0005695D01*
X0116640Y0005479D01*
X0116448Y0005268D01*
X0116251Y0005061D01*
X0116049Y0004859D01*
X0115842Y0004662D01*
X0115631Y0004470D01*
X0115415Y0004284D01*
X0115195Y0004102D01*
X0114970Y0003926D01*
X0114741Y0003756D01*
X0114508Y0003591D01*
X0114272Y0003431D01*
X0114031Y0003278D01*
X0113787Y0003130D01*
X0113539Y0002989D01*
X0113288Y0002853D01*
X0113034Y0002723D01*
X0112776Y0002600D01*
X0112516Y0002483D01*
X0112253Y0002372D01*
X0111987Y0002268D01*
X0111719Y0002170D01*
X0111449Y0002078D01*
X0111176Y0001993D01*
X0110902Y0001915D01*
X0110626Y0001843D01*
X0110348Y0001778D01*
X0110068Y0001720D01*
X0109787Y0001669D01*
X0109506Y0001624D01*
X0109223Y0001586D01*
X0108939Y0001555D01*
X0108655Y0001531D01*
X0108370Y0001514D01*
X0108084Y0001503D01*
X0107799Y0001500D01*
X0013311Y0001500D01*
X0013026Y0001503D01*
X0012740Y0001514D01*
X0012455Y0001531D01*
X0012171Y0001555D01*
X0011887Y0001586D01*
X0011604Y0001624D01*
X0011323Y0001669D01*
X0011042Y0001720D01*
X0010762Y0001778D01*
X0010484Y0001843D01*
X0010208Y0001915D01*
X0009934Y0001993D01*
X0009661Y0002078D01*
X0009391Y0002170D01*
X0009123Y0002268D01*
X0008857Y0002372D01*
X0008594Y0002483D01*
X0008334Y0002600D01*
X0008076Y0002723D01*
X0007822Y0002853D01*
X0007571Y0002989D01*
X0007323Y0003130D01*
X0007079Y0003278D01*
X0006838Y0003431D01*
X0006602Y0003591D01*
X0006369Y0003756D01*
X0006140Y0003926D01*
X0005915Y0004102D01*
X0005695Y0004284D01*
X0005479Y0004470D01*
X0005268Y0004662D01*
X0005061Y0004859D01*
X0004859Y0005061D01*
X0004662Y0005268D01*
X0004470Y0005479D01*
X0004284Y0005695D01*
X0004102Y0005915D01*
X0003926Y0006140D01*
X0003756Y0006369D01*
X0003591Y0006602D01*
X0003431Y0006838D01*
X0003278Y0007079D01*
X0003130Y0007323D01*
X0002989Y0007571D01*
X0002853Y0007822D01*
X0002723Y0008076D01*
X0002600Y0008334D01*
X0002483Y0008594D01*
X0002372Y0008857D01*
X0002268Y0009123D01*
X0002170Y0009391D01*
X0002078Y0009661D01*
X0001993Y0009934D01*
X0001915Y0010208D01*
X0001843Y0010484D01*
X0001778Y0010762D01*
X0001720Y0011042D01*
X0001669Y0011323D01*
X0001624Y0011604D01*
X0001586Y0011887D01*
X0001555Y0012171D01*
X0001531Y0012455D01*
X0001514Y0012740D01*
X0001503Y0013026D01*
X0001500Y0013311D01*
D11*
X0009190Y0111350D02*
X0009791Y0111350D01*
X0010391Y0111950D01*
X0010391Y0114953D01*
X0009791Y0114953D02*
X0010992Y0114953D01*
X0012273Y0114953D02*
X0014074Y0114953D01*
X0014675Y0114352D01*
X0014675Y0113151D01*
X0014074Y0112551D01*
X0012273Y0112551D01*
X0012273Y0111350D02*
X0012273Y0114953D01*
X0015956Y0113752D02*
X0017157Y0114953D01*
X0017157Y0111350D01*
X0015956Y0111350D02*
X0018358Y0111350D01*
X0009190Y0111350D02*
X0008590Y0111950D01*
X0045318Y0110298D02*
X0046519Y0110298D01*
X0045919Y0110298D02*
X0045919Y0113902D01*
X0046519Y0113902D02*
X0045318Y0113902D01*
X0047774Y0113301D02*
X0047774Y0110899D01*
X0048374Y0110298D01*
X0049575Y0110298D01*
X0050176Y0110899D01*
X0051457Y0112100D02*
X0053859Y0112100D01*
X0053258Y0110298D02*
X0053258Y0113902D01*
X0051457Y0112100D01*
X0050176Y0113301D02*
X0049575Y0113902D01*
X0048374Y0113902D01*
X0047774Y0113301D01*
X0072566Y0112527D02*
X0072566Y0117731D01*
X0075168Y0117731D01*
X0076036Y0116864D01*
X0076036Y0115129D01*
X0075168Y0114262D01*
X0072566Y0114262D01*
X0074301Y0114262D02*
X0076036Y0112527D01*
X0077723Y0112527D02*
X0081192Y0112527D01*
X0082879Y0113394D02*
X0083746Y0112527D01*
X0085481Y0112527D01*
X0086349Y0113394D01*
X0086349Y0114262D01*
X0085481Y0115129D01*
X0083746Y0115129D01*
X0082879Y0115996D01*
X0082879Y0116864D01*
X0083746Y0117731D01*
X0085481Y0117731D01*
X0086349Y0116864D01*
X0088035Y0115996D02*
X0089770Y0117731D01*
X0091505Y0115996D01*
X0091505Y0112527D01*
X0093192Y0113394D02*
X0094059Y0112527D01*
X0094927Y0112527D01*
X0095794Y0113394D01*
X0095794Y0117731D01*
X0094927Y0117731D02*
X0096661Y0117731D01*
X0091505Y0115129D02*
X0088035Y0115129D01*
X0088035Y0115996D02*
X0088035Y0112527D01*
X0081192Y0117731D02*
X0077723Y0117731D01*
X0077723Y0112527D01*
X0077723Y0115129D02*
X0079457Y0115129D01*
X0104632Y0008867D02*
X0105833Y0008867D01*
X0105232Y0008867D02*
X0105232Y0005864D01*
X0104632Y0005264D01*
X0104031Y0005264D01*
X0103431Y0005864D01*
X0107114Y0005264D02*
X0107114Y0008867D01*
X0108916Y0008867D01*
X0109516Y0008266D01*
X0109516Y0007065D01*
X0108916Y0006465D01*
X0107114Y0006465D01*
X0110797Y0005264D02*
X0113199Y0007666D01*
X0113199Y0008266D01*
X0112599Y0008867D01*
X0111398Y0008867D01*
X0110797Y0008266D01*
X0110797Y0005264D02*
X0113199Y0005264D01*
D12*
X0102804Y0014091D02*
X0102804Y0015059D01*
X0101836Y0015059D01*
X0100869Y0016026D02*
X0100869Y0014091D01*
X0101353Y0013607D01*
X0102320Y0013607D01*
X0102804Y0014091D01*
X0102804Y0016026D02*
X0102320Y0016510D01*
X0101353Y0016510D01*
X0100869Y0016026D01*
X0099767Y0023844D02*
X0098800Y0023844D01*
X0098316Y0024327D01*
X0098316Y0025295D02*
X0099284Y0025779D01*
X0099767Y0025779D01*
X0100251Y0025295D01*
X0100251Y0024327D01*
X0099767Y0023844D01*
X0101263Y0024811D02*
X0102230Y0023844D01*
X0103198Y0024811D01*
X0103198Y0026746D01*
X0101263Y0026746D02*
X0101263Y0024811D01*
X0100251Y0026746D02*
X0098316Y0026746D01*
X0098316Y0025295D01*
X0099087Y0033883D02*
X0100054Y0034851D01*
X0100054Y0036786D01*
X0101066Y0036302D02*
X0101549Y0036786D01*
X0102517Y0036786D01*
X0103001Y0036302D01*
X0103001Y0035818D01*
X0101066Y0033883D01*
X0103001Y0033883D01*
X0099087Y0033883D02*
X0098119Y0034851D01*
X0098119Y0036786D01*
X0098119Y0044119D02*
X0098119Y0047022D01*
X0099570Y0047022D01*
X0100054Y0046538D01*
X0100054Y0045571D01*
X0099570Y0045087D01*
X0098119Y0045087D01*
X0099087Y0045087D02*
X0100054Y0044119D01*
X0101066Y0044119D02*
X0103001Y0046054D01*
X0103001Y0046538D01*
X0102517Y0047022D01*
X0101549Y0047022D01*
X0101066Y0046538D01*
X0101066Y0044119D02*
X0103001Y0044119D01*
X0103001Y0053962D02*
X0101066Y0053962D01*
X0102033Y0053962D02*
X0102033Y0056864D01*
X0101066Y0055897D01*
X0100054Y0056864D02*
X0100054Y0054929D01*
X0099087Y0053962D01*
X0098119Y0054929D01*
X0098119Y0056864D01*
X0098119Y0063804D02*
X0098119Y0066707D01*
X0099570Y0066707D01*
X0100054Y0066223D01*
X0100054Y0065256D01*
X0099570Y0064772D01*
X0098119Y0064772D01*
X0099087Y0064772D02*
X0100054Y0063804D01*
X0101066Y0063804D02*
X0103001Y0063804D01*
X0102033Y0063804D02*
X0102033Y0066707D01*
X0101066Y0065739D01*
X0101066Y0073844D02*
X0103001Y0073844D01*
X0102033Y0075295D02*
X0101066Y0075295D01*
X0101066Y0076746D02*
X0101066Y0073844D01*
X0098119Y0073844D02*
X0100054Y0076746D01*
X0101066Y0076746D02*
X0103001Y0076746D01*
X0097108Y0076262D02*
X0097108Y0074327D01*
X0096624Y0073844D01*
X0095656Y0073844D01*
X0095173Y0074327D01*
X0095173Y0076262D01*
X0095656Y0076746D01*
X0096624Y0076746D01*
X0097108Y0076262D01*
X0098119Y0083686D02*
X0099570Y0083686D01*
X0100054Y0084170D01*
X0100054Y0084654D01*
X0099570Y0085137D01*
X0098119Y0085137D01*
X0098119Y0083686D02*
X0098119Y0086589D01*
X0099570Y0086589D01*
X0100054Y0086105D01*
X0100054Y0085621D01*
X0099570Y0085137D01*
X0101066Y0084170D02*
X0101549Y0083686D01*
X0102517Y0083686D01*
X0103001Y0084170D01*
X0103001Y0086589D01*
X0101066Y0086589D02*
X0101066Y0084170D01*
X0102033Y0093726D02*
X0102033Y0096628D01*
X0101066Y0096628D02*
X0103001Y0096628D01*
X0100054Y0096144D02*
X0100054Y0095177D01*
X0099570Y0094693D01*
X0098119Y0094693D01*
X0098119Y0093726D02*
X0098119Y0096628D01*
X0099570Y0096628D01*
X0100054Y0096144D01*
X0099087Y0094693D02*
X0100054Y0093726D01*
X0097108Y0093726D02*
X0095173Y0093726D01*
X0095173Y0096628D01*
X0097108Y0096628D01*
X0096140Y0095177D02*
X0095173Y0095177D01*
X0094161Y0094693D02*
X0094161Y0096628D01*
X0092226Y0096628D02*
X0092226Y0094693D01*
X0093194Y0093726D01*
X0094161Y0094693D01*
X0089436Y0092945D02*
X0089436Y0092327D01*
X0088819Y0091710D01*
X0089436Y0091093D01*
X0089436Y0090476D01*
X0088819Y0089859D01*
X0087584Y0089859D01*
X0086967Y0090476D01*
X0085753Y0089859D02*
X0084518Y0091093D01*
X0085135Y0091093D02*
X0083284Y0091093D01*
X0083284Y0089859D02*
X0083284Y0093562D01*
X0085135Y0093562D01*
X0085753Y0092945D01*
X0085753Y0091710D01*
X0085135Y0091093D01*
X0086967Y0092945D02*
X0087584Y0093562D01*
X0088819Y0093562D01*
X0089436Y0092945D01*
X0088819Y0091710D02*
X0088201Y0091710D01*
X0092710Y0103765D02*
X0093677Y0103765D01*
X0094161Y0104249D01*
X0095173Y0104249D02*
X0095656Y0103765D01*
X0096624Y0103765D01*
X0097108Y0104249D01*
X0097108Y0106184D01*
X0096624Y0106667D01*
X0095656Y0106667D01*
X0095173Y0106184D01*
X0095173Y0104249D01*
X0094161Y0106184D02*
X0093677Y0106667D01*
X0092710Y0106667D01*
X0092226Y0106184D01*
X0092226Y0104249D01*
X0092710Y0103765D01*
X0098119Y0103765D02*
X0098119Y0106667D01*
X0099087Y0105700D01*
X0100054Y0106667D01*
X0100054Y0103765D01*
X0101066Y0103765D02*
X0101066Y0106667D01*
X0102517Y0106667D01*
X0103001Y0106184D01*
X0103001Y0105216D01*
X0102517Y0104732D01*
X0101066Y0104732D01*
X0083696Y0073971D02*
X0081845Y0072120D01*
X0084314Y0072120D01*
X0083696Y0073971D02*
X0083696Y0070268D01*
X0083368Y0068932D02*
X0084602Y0068932D01*
X0085219Y0068315D01*
X0085219Y0067698D01*
X0084602Y0067080D01*
X0085219Y0066463D01*
X0085219Y0065846D01*
X0084602Y0065229D01*
X0083368Y0065229D01*
X0082750Y0065846D01*
X0081536Y0065846D02*
X0080919Y0065229D01*
X0079684Y0065229D01*
X0079067Y0065846D01*
X0079067Y0068315D01*
X0079684Y0068932D01*
X0080919Y0068932D01*
X0081536Y0068315D01*
X0082750Y0068315D02*
X0083368Y0068932D01*
X0083985Y0067080D02*
X0084602Y0067080D01*
X0080630Y0070885D02*
X0080013Y0070268D01*
X0078779Y0070268D01*
X0078162Y0070885D01*
X0078162Y0073354D01*
X0078779Y0073971D01*
X0080013Y0073971D01*
X0080630Y0073354D01*
X0080919Y0062042D02*
X0079067Y0062042D01*
X0079067Y0058339D01*
X0079067Y0059573D02*
X0080919Y0059573D01*
X0081536Y0060191D01*
X0081536Y0061425D01*
X0080919Y0062042D01*
X0082750Y0061425D02*
X0083368Y0062042D01*
X0084602Y0062042D01*
X0085219Y0061425D01*
X0085219Y0060808D01*
X0082750Y0058339D01*
X0085219Y0058339D01*
X0081536Y0058339D02*
X0080302Y0059573D01*
X0066458Y0057945D02*
X0066458Y0057327D01*
X0065841Y0056710D01*
X0066458Y0056093D01*
X0066458Y0055476D01*
X0065841Y0054859D01*
X0064607Y0054859D01*
X0063989Y0055476D01*
X0062775Y0055476D02*
X0062158Y0054859D01*
X0060923Y0054859D01*
X0060306Y0055476D01*
X0060306Y0057945D01*
X0060923Y0058562D01*
X0062158Y0058562D01*
X0062775Y0057945D01*
X0063989Y0057945D02*
X0064607Y0058562D01*
X0065841Y0058562D01*
X0066458Y0057945D01*
X0065841Y0056710D02*
X0065224Y0056710D01*
X0059085Y0054859D02*
X0057851Y0054859D01*
X0058468Y0054859D02*
X0058468Y0058562D01*
X0057851Y0058562D02*
X0059085Y0058562D01*
X0026503Y0063908D02*
X0026503Y0066377D01*
X0026503Y0063908D02*
X0025268Y0062674D01*
X0024034Y0063908D01*
X0024034Y0066377D01*
X0022820Y0066377D02*
X0020351Y0066377D01*
X0020351Y0064525D01*
X0021585Y0065142D01*
X0022202Y0065142D01*
X0022820Y0064525D01*
X0022820Y0063291D01*
X0022202Y0062674D01*
X0020968Y0062674D01*
X0020351Y0063291D01*
X0020771Y0072516D02*
X0022006Y0072516D01*
X0022623Y0073133D01*
X0022623Y0074368D01*
X0021388Y0074368D01*
X0020154Y0075602D02*
X0020154Y0073133D01*
X0020771Y0072516D01*
X0020154Y0075602D02*
X0020771Y0076219D01*
X0022006Y0076219D01*
X0022623Y0075602D01*
X0020925Y0082752D02*
X0021892Y0083720D01*
X0021892Y0085655D01*
X0019957Y0085655D02*
X0019957Y0083720D01*
X0020925Y0082752D01*
X0021892Y0093185D02*
X0021892Y0095120D01*
X0020925Y0096088D01*
X0019957Y0095120D01*
X0019957Y0093185D01*
X0019957Y0094637D02*
X0021892Y0094637D01*
X0025855Y0095240D02*
X0026473Y0094622D01*
X0028941Y0094622D01*
X0029559Y0095240D01*
X0029559Y0096474D01*
X0028941Y0097091D01*
X0029559Y0098306D02*
X0029559Y0100774D01*
X0029559Y0099540D02*
X0025855Y0099540D01*
X0027090Y0098306D01*
X0026473Y0097091D02*
X0025855Y0096474D01*
X0025855Y0095240D01*
X0031887Y0008381D02*
X0033122Y0008381D01*
X0032505Y0008381D02*
X0032505Y0004678D01*
X0033122Y0004678D02*
X0031887Y0004678D01*
X0034343Y0005295D02*
X0034960Y0004678D01*
X0036194Y0004678D01*
X0036812Y0005295D01*
X0038026Y0004678D02*
X0040495Y0004678D01*
X0039260Y0004678D02*
X0039260Y0008381D01*
X0038026Y0007146D01*
X0036812Y0007764D02*
X0036194Y0008381D01*
X0034960Y0008381D01*
X0034343Y0007764D01*
X0034343Y0005295D01*
D13*
X0039984Y0010791D02*
X0039984Y0051264D01*
X0043626Y0051264D01*
X0039984Y0051264D02*
X0014492Y0051264D01*
X0015811Y0059295D02*
X0010811Y0059295D01*
X0008311Y0061795D01*
X0008311Y0066795D01*
X0010811Y0069295D01*
X0008311Y0071795D01*
X0008311Y0076795D01*
X0010811Y0079295D01*
X0008311Y0081795D01*
X0008311Y0086795D01*
X0010811Y0089295D01*
X0008311Y0091795D01*
X0008311Y0096795D01*
X0010811Y0099295D01*
X0008311Y0101795D01*
X0008311Y0106795D01*
X0010811Y0109295D01*
X0015811Y0109295D01*
X0018311Y0106795D01*
X0018311Y0101795D01*
X0015811Y0099295D01*
X0018311Y0096795D01*
X0018311Y0091795D01*
X0015811Y0089295D01*
X0018311Y0086795D01*
X0018311Y0081795D01*
X0015811Y0079295D01*
X0018311Y0076795D01*
X0018311Y0071795D01*
X0015811Y0069295D01*
X0018311Y0066795D01*
X0018311Y0061795D01*
X0015811Y0059295D01*
X0057051Y0044413D02*
X0057051Y0040772D01*
X0057051Y0015280D01*
X0043626Y0010791D02*
X0039984Y0010791D01*
X0014492Y0010791D01*
X0057051Y0040772D02*
X0097524Y0040772D01*
X0097524Y0015280D01*
X0104768Y0012780D02*
X0104768Y0017780D01*
X0107268Y0020280D01*
X0104768Y0022780D01*
X0104768Y0027780D01*
X0107268Y0030280D01*
X0104768Y0032780D01*
X0104768Y0037780D01*
X0107268Y0040280D01*
X0104768Y0042780D01*
X0104768Y0047780D01*
X0107268Y0050280D01*
X0104768Y0052780D01*
X0104768Y0057780D01*
X0107268Y0060280D01*
X0104768Y0062780D01*
X0104768Y0067780D01*
X0107268Y0070280D01*
X0104768Y0072780D01*
X0104768Y0077780D01*
X0107268Y0080280D01*
X0104768Y0082780D01*
X0104768Y0087780D01*
X0107268Y0090280D01*
X0104768Y0092780D01*
X0104768Y0097780D01*
X0107268Y0100280D01*
X0104768Y0102780D01*
X0104768Y0107780D01*
X0107268Y0110280D01*
X0112268Y0110280D01*
X0114768Y0107780D01*
X0114768Y0102780D01*
X0112268Y0100280D01*
X0114768Y0097780D01*
X0114768Y0092780D01*
X0112268Y0090280D01*
X0114768Y0087780D01*
X0114768Y0082780D01*
X0112268Y0080280D01*
X0114768Y0077780D01*
X0114768Y0072780D01*
X0112268Y0070280D01*
X0114768Y0067780D01*
X0114768Y0062780D01*
X0112268Y0060280D01*
X0114768Y0057780D01*
X0114768Y0052780D01*
X0112268Y0050280D01*
X0114768Y0047780D01*
X0114768Y0042780D01*
X0112268Y0040280D01*
X0114768Y0037780D01*
X0114768Y0032780D01*
X0112268Y0030280D01*
X0114768Y0027780D01*
X0114768Y0022780D01*
X0112268Y0020280D01*
X0114768Y0017780D01*
X0114768Y0012780D01*
X0112268Y0010280D01*
X0107268Y0010280D01*
X0104768Y0012780D01*
X0097524Y0040772D02*
X0097524Y0044413D01*
D14*
X0068118Y0069098D02*
X0045118Y0069098D01*
X0045118Y0109098D01*
X0052618Y0109098D01*
X0052620Y0108972D01*
X0052626Y0108847D01*
X0052636Y0108722D01*
X0052650Y0108597D01*
X0052667Y0108472D01*
X0052689Y0108348D01*
X0052714Y0108225D01*
X0052744Y0108103D01*
X0052777Y0107982D01*
X0052814Y0107862D01*
X0052854Y0107743D01*
X0052899Y0107626D01*
X0052947Y0107509D01*
X0052999Y0107395D01*
X0053054Y0107282D01*
X0053113Y0107171D01*
X0053175Y0107062D01*
X0053241Y0106955D01*
X0053310Y0106850D01*
X0053382Y0106747D01*
X0053457Y0106646D01*
X0053536Y0106548D01*
X0053618Y0106453D01*
X0053702Y0106360D01*
X0053790Y0106270D01*
X0053880Y0106182D01*
X0053973Y0106098D01*
X0054068Y0106016D01*
X0054166Y0105937D01*
X0054267Y0105862D01*
X0054370Y0105790D01*
X0054475Y0105721D01*
X0054582Y0105655D01*
X0054691Y0105593D01*
X0054802Y0105534D01*
X0054915Y0105479D01*
X0055029Y0105427D01*
X0055146Y0105379D01*
X0055263Y0105334D01*
X0055382Y0105294D01*
X0055502Y0105257D01*
X0055623Y0105224D01*
X0055745Y0105194D01*
X0055868Y0105169D01*
X0055992Y0105147D01*
X0056117Y0105130D01*
X0056242Y0105116D01*
X0056367Y0105106D01*
X0056492Y0105100D01*
X0056618Y0105098D01*
X0056744Y0105100D01*
X0056869Y0105106D01*
X0056994Y0105116D01*
X0057119Y0105130D01*
X0057244Y0105147D01*
X0057368Y0105169D01*
X0057491Y0105194D01*
X0057613Y0105224D01*
X0057734Y0105257D01*
X0057854Y0105294D01*
X0057973Y0105334D01*
X0058090Y0105379D01*
X0058207Y0105427D01*
X0058321Y0105479D01*
X0058434Y0105534D01*
X0058545Y0105593D01*
X0058654Y0105655D01*
X0058761Y0105721D01*
X0058866Y0105790D01*
X0058969Y0105862D01*
X0059070Y0105937D01*
X0059168Y0106016D01*
X0059263Y0106098D01*
X0059356Y0106182D01*
X0059446Y0106270D01*
X0059534Y0106360D01*
X0059618Y0106453D01*
X0059700Y0106548D01*
X0059779Y0106646D01*
X0059854Y0106747D01*
X0059926Y0106850D01*
X0059995Y0106955D01*
X0060061Y0107062D01*
X0060123Y0107171D01*
X0060182Y0107282D01*
X0060237Y0107395D01*
X0060289Y0107509D01*
X0060337Y0107626D01*
X0060382Y0107743D01*
X0060422Y0107862D01*
X0060459Y0107982D01*
X0060492Y0108103D01*
X0060522Y0108225D01*
X0060547Y0108348D01*
X0060569Y0108472D01*
X0060586Y0108597D01*
X0060600Y0108722D01*
X0060610Y0108847D01*
X0060616Y0108972D01*
X0060618Y0109098D01*
X0068118Y0109098D01*
X0068118Y0069098D01*
M02*
