%
M48
M72
T01C0.01200
T02C0.03200
T03C0.04000
%
T01
X19217Y11343
X19020Y24531
X23154Y38902
X34965Y31028
X34965Y11343
X50713Y7406
X62524Y19217
X72366Y29059
X80240Y36933
X74925Y40083
X62524Y38902
X58587Y31028
X82996Y24531
X97957Y19217
X99925Y29846
X92051Y40870
X101106Y60555
X95988Y80240
X89295Y90870
X81028Y90870
X86146Y104650
X86146Y114886
X101894Y114886
X99925Y94020
X70398Y114886
X54650Y114886
X54650Y101894
X60555Y86146
X60555Y74335
X60555Y62524
X44807Y56618
X25122Y74335
X23154Y54650
X27091Y109768
X38902Y114886
X101894Y7406
T02
X71618Y74098
X71618Y84098
X71618Y94098
X71618Y104098
X41618Y104098
X41618Y94098
X41618Y84098
X41618Y74098
T03
X13311Y74295
X13311Y64295
X13311Y84295
X13311Y94295
X13311Y104295
X109768Y105280
X109768Y95280
X109768Y85280
X109768Y75280
X109768Y65280
X109768Y55280
X109768Y45280
X109768Y35280
X109768Y25280
X109768Y15280
M30
